<svg width="98" height="61" viewBox="0 0 98 61" fill="none" xmlns="http://www.w3.org/2000/svg">
<g clip-path="url(#clip0)">
<path d="M3.52966 0L20.1398 23.3174V0H23.8771V29.3549H19.7246L3.73729 6.45393V29.1468H0V0H3.52966Z" fill="#217575"/>
<path d="M25.3305 44.5529C23.2542 43.9284 21.5932 42.8874 20.3474 41.6383C19.1017 40.3891 18.4788 38.7236 18.4788 37.058C18.4788 35.3925 19.1016 33.727 20.555 32.4778C22.0084 31.2287 23.4618 30.3959 25.5381 30.3959C27.4067 30.3959 29.0677 31.0205 30.5211 32.4778C31.144 33.1024 31.7669 34.1434 32.1822 35.3925L28.8601 36.6417C28.4449 35.6007 28.0296 34.7679 27.822 34.5598C27.1991 33.9352 26.3686 33.5188 25.5381 33.5188C24.7076 33.5188 23.8771 33.9352 23.2542 34.5598C22.6313 35.1843 22.2161 36.0171 22.2161 37.058C22.2161 38.099 22.6313 38.9318 23.2542 39.5563C23.8771 40.1809 24.9152 40.8055 26.161 41.4301C28.4449 42.2628 30.5211 43.3038 31.9745 44.9693C33.8432 46.843 34.6737 48.9249 34.6737 51.215C34.6737 53.5052 33.8432 55.7953 31.9745 57.4608C30.1059 59.1263 27.822 60.3755 25.1228 60.3755C22.6313 60.3755 20.3474 59.5427 18.4788 57.669C17.0254 56.2116 16.1949 54.5461 15.9872 52.256L19.5169 51.0069C19.7245 53.0888 20.3474 54.7543 21.3855 55.5871C22.4237 56.628 23.6694 57.2526 25.3305 57.2526C26.7839 57.2526 28.2372 56.628 29.2754 55.5871C30.3135 54.5461 30.9364 53.0888 30.9364 51.4232C30.9364 49.7577 30.3135 48.3004 29.2754 47.2594C28.0296 46.2185 26.7839 45.1775 25.3305 44.5529Z" fill="#217575"/>
<path d="M39.6567 41.4301V34.1434H43.394V41.4301H46.9236V44.5529H43.394V59.9591H39.6567V44.5529H36.127V41.4301H39.6567Z" fill="#217575"/>
<path d="M30.3135 25.1911C28.6525 22.901 27.6143 21.2355 27.1991 20.4027C26.3686 19.1536 25.9533 18.3208 25.7457 17.488C25.5381 16.6553 25.3304 15.8225 25.3304 14.7816C25.3304 13.116 25.7457 11.4505 26.5762 10.2014C27.4067 8.95221 28.6525 7.70307 29.8982 6.8703C31.144 6.03754 32.805 5.62115 34.466 5.62115C36.1271 5.62115 37.7881 6.03754 39.0338 6.8703C40.2796 7.70307 41.5254 8.95221 42.3559 10.2014C43.1864 11.4505 43.6016 13.116 43.6016 14.7816C43.6016 15.8225 43.394 16.6553 43.1864 17.488C42.9787 18.3208 42.3559 19.3618 41.733 20.4027C41.3177 21.2355 40.072 22.6928 38.6186 25.1911L35.2965 29.7713C35.0889 30.1877 34.6737 30.1877 34.2584 30.1877C33.8432 30.1877 33.4279 29.9795 33.2203 29.7713C32.805 28.7304 31.7669 27.0648 30.3135 25.1911ZM37.3728 17.488C38.2033 16.6553 38.6186 15.8225 38.6186 14.7816C38.6186 13.7406 38.2033 12.6997 37.3728 12.0751C36.5423 11.4505 35.7118 10.8259 34.6737 10.8259C33.6355 10.8259 32.5974 11.2423 31.9745 12.0751C31.3516 12.9078 30.7287 13.7406 30.7287 14.7816C30.7287 15.8225 31.144 16.8635 31.9745 17.488C32.805 18.1126 33.6355 18.7372 34.6737 18.7372C35.7118 18.7372 36.5423 18.3208 37.3728 17.488Z" fill="#563281"/>
<path d="M56.0594 13.9488C54.3984 14.157 53.1526 14.7816 52.1145 16.0307C51.0764 17.2799 50.6611 18.529 50.6611 19.9863V29.7713H46.9238V11.2423H50.6611V13.9488C51.284 12.4915 52.3221 11.4505 54.1908 10.8259L56.0594 13.9488Z" fill="#217575"/>
<path d="M61.2501 11.2423V3.95563H64.9873V11.2423H68.517V14.3652H64.9873V29.7713H61.2501V14.3652H57.7204V11.2423H61.2501Z" fill="#217575"/>
<path d="M70.801 0.416382H74.5383V11.0341C75.1611 10.4096 76.4069 9.99317 78.4832 9.99317C80.7671 9.99317 82.6357 10.6177 84.0891 12.0751C85.5425 13.5324 86.1654 15.198 86.373 17.2799V29.3549H82.6357V17.6962C82.6357 16.4471 82.2205 15.4061 81.3899 14.5734C80.5594 13.7406 79.5213 13.3242 78.4832 13.3242C77.445 13.3242 76.4069 13.7406 75.5764 14.5734C75.1611 14.9898 74.7459 15.4061 74.5383 16.0307V29.9795H70.801V0.416382Z" fill="#217575"/>
<path d="M59.5891 60.5836C59.3814 60.5836 59.1738 60.5836 59.1738 60.3754C59.1738 60.3754 58.9662 60.1673 58.9662 60.3754C58.7585 60.3754 58.7585 60.3754 58.7585 60.3754C58.7585 60.3754 58.7585 60.3754 58.5509 60.3754C58.5509 60.3754 58.5509 60.3754 58.3433 60.3754C58.3433 60.3754 58.3433 60.1673 58.1357 60.1673C57.928 60.1673 57.928 59.9591 57.928 59.9591H58.1357L57.928 59.7509C57.928 59.7509 57.7204 59.5427 57.5128 59.3345C57.3052 59.1263 57.3052 58.9181 57.3052 58.9181C57.3052 58.9181 57.3052 59.1263 57.5128 58.9181H57.7204C57.7204 58.9181 57.7204 58.9181 57.7204 58.7099V58.5017C57.7204 58.5017 57.5128 58.5017 57.5128 58.2935C57.5128 58.0853 57.5128 58.0853 57.3052 58.0853C57.0975 58.0853 57.0975 58.0853 57.0975 58.2935C57.0975 58.2935 57.0975 58.0853 57.0975 57.669C57.0975 57.2526 57.0975 57.2526 57.0975 57.2526C57.0975 57.2526 57.0975 57.0444 57.0975 56.8362C57.0975 56.628 57.0975 56.628 57.0975 56.628L56.8899 56.8362C56.8899 56.8362 56.8899 56.628 57.0975 56.628C57.0975 56.4198 57.0975 56.4198 57.0975 56.4198C57.0975 56.4198 56.8899 56.4198 57.0975 56.2116C57.0975 56.2116 57.0975 56.0034 57.0975 55.7952C57.0975 55.587 57.0975 55.3789 57.0975 54.9625C57.0975 54.9625 57.0975 54.9625 56.8899 54.9625C56.6823 54.9625 56.6823 55.1707 56.6823 55.3789L56.4746 56.2116C56.267 56.4198 56.267 56.628 56.267 56.628C56.267 56.628 56.267 56.628 56.267 56.8362H56.0594C56.0594 56.8362 56.0594 56.8362 56.0594 57.0444C56.0594 57.0444 55.8518 57.0444 55.8518 57.2526C55.8518 57.4608 55.6441 57.4608 55.6441 57.4608L55.4365 57.669C55.2289 57.8772 55.2289 57.8771 55.2289 57.8771C55.2289 57.8771 55.2289 57.8771 55.0213 57.8771C54.8136 57.8771 54.8136 57.8771 54.8136 58.0853C54.606 58.2935 54.606 58.2935 54.8136 58.2935C54.8136 58.2935 55.0213 58.2935 55.0213 58.0853C55.2289 57.8771 55.2289 57.8771 55.2289 58.0853C55.2289 58.0853 55.0213 58.2935 55.0213 58.5017C54.606 58.2935 54.606 58.2935 54.606 58.2935C54.606 58.2935 54.606 58.2935 54.3984 58.2935C54.1907 58.5017 54.1907 58.5017 53.9831 58.5017C53.9831 58.5017 53.7755 58.5017 53.7755 58.7099C53.5679 58.9181 53.5679 58.9181 53.5679 59.1263C53.5679 59.1263 53.5679 59.1263 53.3602 59.3345C53.1526 59.3345 52.945 59.3345 52.945 59.3345C52.7374 59.3345 52.7374 59.3345 52.7374 59.3345C52.7374 59.3345 52.7374 59.5427 52.945 59.5427C53.1526 59.5427 52.945 59.5427 52.945 59.7509C52.7374 59.7509 52.7374 59.7509 52.945 59.7509H52.7374C52.7374 59.7509 52.5297 59.7509 52.5297 59.9591C52.3221 59.9591 52.3221 59.9591 52.3221 59.9591H52.1145C52.1145 59.9591 52.1145 59.9591 52.1145 59.7509C51.9068 59.7509 51.9068 59.7509 51.9068 59.7509C51.9068 59.7509 51.9068 59.7509 51.6992 59.7509H51.4916H51.284C51.284 59.7509 51.284 59.7509 51.0763 59.7509C50.8687 59.7509 50.8687 59.7509 50.8687 59.7509C50.6611 59.7509 50.4535 59.7509 50.2458 59.7509C50.0382 59.7509 50.0382 59.7509 49.8306 59.7509C49.6229 59.7509 49.6229 59.7509 49.6229 59.7509C49.0001 59.7509 48.5848 59.3345 47.9619 58.2935C47.9619 58.0853 47.7543 57.8772 47.7543 57.669C47.7543 57.4608 47.5467 57.2526 47.5467 57.0444C47.5467 56.8362 47.5467 56.628 47.3391 56.2116C47.3391 56.2116 47.3391 56.0034 47.3391 55.7952C47.3391 55.587 47.3391 55.3789 47.3391 55.1707C47.3391 54.9625 47.3391 54.5461 47.3391 54.1297C47.3391 53.7133 47.3391 53.5051 47.5467 53.0888C47.5467 52.6724 47.5467 52.4642 47.7543 52.256C47.7543 52.0478 47.7543 52.0478 47.7543 51.8396C47.7543 51.6314 47.7543 51.6314 47.9619 51.4232C47.9619 51.215 47.9619 51.215 48.1696 51.0068V50.7987C48.1696 50.7987 48.1696 50.5905 48.3772 50.3823C48.3772 50.1741 48.7924 49.5495 49.0001 48.9249C49.2077 48.5086 49.4153 48.0922 49.6229 47.4676C49.8306 46.843 50.2458 46.4266 50.6611 45.8021C51.284 44.9693 51.9068 44.3447 52.5297 43.9283C53.1526 43.512 53.9831 42.8874 54.606 42.2628C54.8136 42.0546 55.2289 41.8464 55.6441 41.6382C56.0594 41.4301 56.267 41.4301 56.267 41.2219C56.267 41.2219 56.4746 41.0137 56.6823 41.0137C56.8899 41.0137 56.8899 41.0137 56.8899 41.0137L57.0975 41.2219C57.0975 41.2219 57.0975 41.2219 57.3052 41.2219C57.5128 41.2219 57.5128 41.0137 57.5128 41.0137C57.5128 41.0137 57.5128 41.0137 57.7204 41.0137H57.928C57.928 41.0137 58.3433 41.2219 58.7585 41.4301C58.9662 41.6382 59.3814 41.8464 59.7967 42.2628C60.2119 42.6792 60.4196 42.6792 60.6272 42.8874C60.6272 42.8874 60.8348 42.8874 60.8348 43.0956C60.8348 43.0956 60.8348 43.0956 61.0424 43.3038C61.2501 43.0956 61.2501 43.0956 61.2501 42.8874L61.4577 42.6792L61.6653 42.471C61.8729 42.471 61.8729 42.471 61.8729 42.471V42.6792L62.0806 42.471C62.2882 42.471 62.2882 42.2628 62.2882 42.2628C62.2882 42.2628 62.2882 42.2628 62.4958 42.2628C62.7035 42.2628 62.7035 42.2628 62.7035 42.2628C62.7035 42.2628 62.7035 42.471 62.9111 42.471C62.9111 42.471 62.9111 42.471 62.9111 42.2628V42.0546C62.9111 42.0546 63.1187 42.0546 63.534 41.8464C63.534 41.8464 63.7416 41.8464 63.7416 42.0546L63.9492 42.2628C63.9492 42.2628 63.9492 42.2628 64.1568 42.2628C64.3645 42.2628 64.3645 42.2628 64.5721 42.471C64.7797 42.471 64.7797 42.6792 64.9874 42.6792C65.195 42.6792 65.195 42.6792 65.195 42.8874C65.195 42.8874 65.4026 42.8874 65.6102 43.0956C65.8179 43.3038 66.0255 43.3038 66.0255 43.512C66.0255 43.512 66.0255 43.7202 66.0255 43.9283C66.0255 44.1365 66.0255 44.3447 65.8179 44.3447C65.6102 44.3447 65.8179 44.3447 65.8179 44.5529C65.8179 44.7611 65.8179 44.7611 65.8179 44.7611C65.8179 44.7611 65.6102 44.9693 65.6102 45.1775V45.3857C65.6102 45.5939 65.4026 45.5939 65.4026 45.8021C65.4026 46.0103 65.195 46.0103 65.195 46.2184C65.195 46.2184 65.195 46.2184 65.195 46.4266H64.9874C64.9874 46.4266 64.9874 46.4266 64.9874 46.6348C64.9874 46.843 64.9874 46.843 64.9874 46.843C64.9874 46.843 64.7797 46.843 64.7797 47.0512C64.7797 47.2594 64.7797 47.2594 64.7797 47.2594C64.7797 47.2594 64.7797 47.4676 64.5721 47.4676L64.1568 47.6758C64.1568 47.6758 64.1568 47.6758 63.9492 47.6758H63.7416C63.534 47.6758 63.534 47.884 63.3263 48.0922C63.1187 48.3004 63.1187 48.3004 63.1187 48.3004C63.1187 48.3004 63.1187 48.3004 63.3263 48.3004H63.534C63.534 48.3004 63.534 48.5085 63.3263 48.7167C63.3263 48.9249 63.1187 48.9249 63.1187 48.9249C63.1187 48.9249 63.3263 48.9249 63.3263 48.7167C63.3263 48.7167 63.3263 48.7167 63.534 48.7167L63.9492 48.5085C64.1568 48.5085 64.1568 48.3004 64.1568 48.3004C64.1568 48.3004 64.1568 48.3004 63.9492 48.5085L63.7416 48.7167C63.7416 48.7167 63.7416 48.7167 63.534 48.9249C63.534 48.9249 63.3263 48.9249 63.3263 49.1331C63.534 49.1331 63.534 49.1331 63.3263 49.3413L63.1187 49.5495C63.1187 49.5495 63.1187 49.7577 63.3263 49.7577H63.534L63.3263 49.9659C63.3263 50.1741 63.1187 50.1741 63.3263 50.3823V50.5905C63.3263 50.5905 63.1187 50.5905 62.9111 50.7987C62.7035 51.0068 62.7035 51.215 62.7035 51.215C62.7035 51.215 62.7035 51.4232 62.7035 51.6314C62.7035 51.8396 62.4958 51.8396 62.4958 52.0478H62.2882V51.8396C62.2882 51.8396 62.2882 51.6314 62.0806 51.6314L61.8729 51.8396L61.6653 52.0478H61.4577C61.4577 52.0478 61.4577 52.0478 61.4577 52.256C61.4577 52.256 61.2501 52.256 61.2501 52.4642L61.0424 52.6724C61.0424 52.8806 61.0424 52.8806 61.0424 52.8806C61.0424 52.8806 61.0424 53.0888 61.0424 53.2969C60.8348 53.2969 60.8348 53.5051 60.8348 53.5051C60.8348 53.7133 60.8348 53.7133 61.0424 53.7133C61.0424 53.7133 60.8348 53.7133 60.8348 53.9215C60.8348 53.9215 60.8348 53.9215 60.6272 53.9215C60.6272 53.9215 60.6272 53.9215 60.4196 53.9215V54.1297C60.4196 54.1297 60.4196 54.3379 60.6272 54.3379C60.8348 54.3379 60.8348 54.3379 60.8348 54.3379C60.8348 54.5461 61.0424 54.3379 61.0424 54.1297C61.0424 54.1297 61.0424 54.1297 60.8348 54.1297C60.6272 54.1297 60.6272 54.1297 60.6272 54.1297C60.6272 54.1297 60.6272 54.1297 60.8348 54.1297C61.0424 53.9215 61.0424 53.9215 61.0424 53.9215V54.1297V54.3379V54.5461C61.0424 54.7543 61.0424 54.9625 60.8348 54.9625C60.8348 54.9625 60.8348 55.1707 60.6272 55.3789C60.6272 55.587 60.6272 55.587 60.4196 55.587C60.4196 55.587 60.4196 55.587 60.4196 55.7952C60.4196 55.7952 60.4196 55.587 60.4196 55.3789C60.4196 55.1707 60.4196 54.9625 60.4196 54.7543C60.4196 54.5461 60.4196 54.3379 60.4196 54.3379C60.4196 54.3379 60.4196 54.3379 60.2119 54.3379C60.0043 54.3379 60.0043 54.3379 60.2119 54.3379C60.2119 54.3379 60.2119 54.1297 60.4196 54.1297C60.6272 54.1297 60.4196 53.9215 60.4196 53.9215C60.4196 53.9215 60.2119 54.1297 60.2119 54.5461C60.2119 54.9625 60.0043 54.9625 60.0043 54.9625C60.0043 54.9625 59.7967 55.1707 59.7967 55.3789C59.7967 55.7952 59.5891 56.0034 59.5891 56.4198C59.5891 56.628 59.5891 56.8362 59.5891 56.8362C59.5891 56.8362 59.5891 57.0444 59.3814 57.0444C59.3814 57.0444 59.1738 57.2526 59.3814 57.2526C59.3814 57.4608 59.3814 57.4608 59.3814 57.4608C59.3814 57.4608 59.3814 57.4608 59.3814 57.2526C59.3814 57.2526 59.3814 57.2526 59.3814 57.0444C59.3814 56.8362 59.3814 56.8362 59.3814 56.8362C59.3814 56.8362 59.3814 56.8362 59.3814 57.0444V57.2526C59.3814 57.2526 59.3814 57.4608 59.1738 57.4608C59.1738 57.4608 58.9662 57.4608 58.7585 57.4608C58.5509 57.4608 58.5509 57.669 58.7585 57.669C58.7585 57.669 58.7585 57.669 58.9662 57.669H59.1738V57.8771C59.1738 57.8771 59.1738 58.0853 59.3814 58.2935C59.3814 58.5017 59.5891 58.5017 59.5891 58.5017C59.5891 58.5017 59.5891 58.5017 59.5891 58.2935C59.5891 58.0853 59.589 58.0853 59.7967 58.0853L60.0043 58.2935C60.0043 58.2935 60.0043 58.5017 60.2119 58.5017H60.4196C60.4196 58.5017 60.4196 58.5017 60.6272 58.5017C60.8348 58.5017 61.0424 58.5017 61.0424 58.5017C61.0424 58.5017 61.2501 58.5017 61.2501 58.2935C61.2501 58.0853 61.2501 58.0853 61.0424 58.0853C61.0424 58.0853 60.8348 58.0853 61.0424 58.0853V57.8771V57.669C61.0424 57.669 61.0424 57.669 61.2501 57.4608C61.2501 57.2526 61.4577 57.0444 61.4577 56.8362C61.4577 56.628 61.4577 56.628 61.4577 56.628C61.4577 56.628 61.4577 56.4198 61.6653 56.4198L61.8729 56.2116V56.4198V56.2116L62.0806 56.0034C62.2882 56.0034 62.2882 55.7952 62.2882 55.587V55.3789C62.2882 55.1707 62.4958 55.1707 62.4958 55.1707C62.4958 55.1707 62.4958 55.1707 62.4958 55.3789C62.4958 55.3789 62.4958 55.587 62.2882 55.587C62.2882 55.587 62.2882 55.7952 62.0806 55.7952C62.0806 55.7952 62.0806 56.0034 61.8729 56.0034C61.8729 56.0034 61.8729 56.2116 61.8729 56.4198C61.8729 56.628 61.6653 56.628 61.6653 56.628C61.6653 56.628 61.6653 56.628 61.4577 56.628C61.4577 56.628 61.2501 56.8362 61.2501 57.0444C61.0424 57.4608 61.2501 57.669 61.2501 57.4608V57.669C61.0424 57.8772 61.0424 58.0853 61.0424 58.0853C61.0424 58.2935 61.0424 58.2935 61.2501 58.2935C61.4577 58.5017 61.6653 58.2935 62.0806 58.0853C62.4958 57.8771 62.9111 57.669 63.1187 57.2526C63.534 57.0444 63.7416 56.628 64.1568 56.4198C64.5721 56.2116 64.5721 56.0034 64.7797 55.7952C65.195 55.587 65.4026 55.1707 65.8179 54.9625C66.2331 54.7543 66.4407 54.3379 66.856 53.9215C67.2713 53.5051 67.4789 53.0888 67.8941 52.6724C68.3094 52.256 68.517 51.8396 68.9323 51.6314C69.7628 50.7987 70.178 50.1741 70.5933 49.7577C70.8009 49.3413 71.0085 49.1331 71.2162 48.9249C71.2162 48.7167 71.4238 48.7167 71.4238 48.7167C71.4238 48.7167 71.4238 48.9249 71.2162 49.1331C71.0085 49.3413 71.0085 49.5495 71.0085 49.5495C71.0085 49.5495 71.0085 49.5495 71.2162 49.5495C71.4238 49.5495 71.4238 49.7577 71.4238 49.7577C71.4238 49.7577 71.4238 49.9659 71.2162 50.1741L71.0085 50.3823C71.0085 50.3823 71.0085 50.3823 70.8009 50.3823C70.8009 50.3823 70.8009 50.3823 70.5933 50.3823C70.5933 50.3823 70.3857 50.3823 70.5933 50.5905C70.5933 50.5905 70.3857 50.5905 70.3857 50.7987C70.3857 50.7987 70.3857 50.7987 70.178 51.0068L69.9704 51.4232L69.5551 52.0478C69.5551 52.256 69.3475 52.4642 69.1399 52.4642C68.9323 52.6724 68.9323 52.6724 68.9323 52.6724L68.7246 52.8806L68.517 53.7133C68.517 53.9215 68.517 53.9215 68.3094 53.9215L68.1018 54.1297C67.6865 54.5461 67.2712 54.9625 67.0636 55.1707C66.856 55.3789 66.6484 56.0034 66.4407 56.2116C66.2331 56.4198 66.0255 56.628 65.8179 56.8362C65.6102 57.0444 65.4026 57.2526 65.195 57.4608C64.9874 57.669 64.9874 57.669 64.9874 57.8771C64.9874 57.8771 64.9874 57.8771 64.7797 57.8771C64.7797 57.8771 64.5721 58.0853 64.5721 58.2935C64.5721 58.5017 64.3645 58.7099 64.1568 58.7099C64.1568 58.7099 63.9492 58.7099 63.9492 58.9181C63.9492 58.9181 63.7416 59.1263 63.534 59.3345C63.3263 59.5427 63.3263 59.5427 63.1187 59.5427C62.9111 59.5427 62.9111 59.5427 62.9111 59.7509C62.9111 59.9591 62.9111 59.9591 62.9111 59.9591L62.7035 60.1673C62.7035 60.1673 62.4958 60.1673 62.2882 60.3754C62.0806 60.5836 61.8729 60.5836 61.8729 60.5836V60.7918C61.8729 60.7918 61.8729 60.7918 61.6653 60.7918C61.6653 60.7918 61.4577 60.7918 61.2501 61C60.8348 61.2082 60.6272 61.2082 60.2119 61.2082C60.2119 60.7918 59.7967 60.7918 59.5891 60.5836ZM47.7543 57.2526C47.7543 57.0444 47.5467 57.0444 47.5467 57.0444C47.5467 57.0444 47.5467 57.2526 47.7543 57.2526C47.5467 57.4608 47.7543 57.4608 47.7543 57.4608C47.7543 57.669 47.7543 57.4608 47.7543 57.2526ZM50.6611 57.8771C50.4535 57.8771 50.4535 57.8771 50.6611 57.8771V57.8771ZM51.284 54.1297C51.284 54.1297 51.4916 54.1297 51.284 54.1297C51.4916 53.9215 51.4916 53.9215 51.284 54.1297ZM53.9831 56.8362C54.1907 56.628 54.3984 56.4198 54.606 56.4198C54.8136 56.4198 54.8136 56.2116 55.0213 56.2116C55.2289 56.2116 55.2289 56.0034 55.6441 55.587C55.8518 55.3789 56.267 54.7543 56.6823 54.1297C56.8899 53.9215 56.8899 53.7133 57.0975 53.7133C57.3052 53.7133 57.3052 53.5051 57.3052 53.5051C57.3052 53.5051 57.5128 53.2969 57.5128 52.8806C57.5128 52.6724 57.7204 52.4642 57.7204 52.4642C57.7204 52.256 57.7204 51.8396 57.928 51.215C58.1357 50.5905 58.3433 49.9659 58.5509 49.1331C58.7585 48.3004 58.9662 47.6758 59.1738 47.0512C59.3814 46.4266 59.589 45.8021 59.7967 45.3857C59.7967 45.1775 59.7967 45.1775 60.0043 44.9693C60.0043 44.9693 60.0043 44.7611 60.2119 44.7611V44.5529C60.2119 44.5529 60.2119 44.3447 60.0043 44.3447C59.7967 44.3447 59.5891 44.1365 59.5891 44.1365C59.3814 44.1365 59.1738 44.1365 59.1738 44.3447C59.1738 44.3447 58.9662 44.5529 58.7585 44.5529C58.5509 44.7611 58.3433 44.9693 57.928 45.1775C57.7204 45.3857 57.5128 45.5939 57.0975 45.8021C56.8899 46.0103 56.6823 46.0103 56.6823 46.2184C56.6823 46.2184 56.6823 46.4266 56.4746 46.4266C56.267 46.4266 56.267 46.6348 56.267 46.6348C56.267 46.6348 56.267 46.843 56.0594 46.843C55.8518 46.843 55.8518 47.0512 55.8518 47.0512C55.8518 47.0512 55.8518 47.2594 55.6441 47.2594L55.4365 47.4676C55.4365 47.4676 55.2289 47.4676 55.2289 47.6758C55.2289 47.884 55.2289 47.884 55.0213 48.0922L54.8136 48.3004L54.606 48.5085C54.606 48.5085 54.606 48.7167 54.3984 48.7167L54.1907 48.9249C53.9831 49.1331 53.9831 49.3413 53.7755 49.5495C53.7755 49.7577 53.5679 49.7577 53.5679 49.9659C53.5679 50.1741 53.1526 49.9659 53.1526 49.9659C53.1526 49.9659 53.1526 49.9659 52.945 50.1741C52.945 50.1741 52.945 50.3823 52.7374 50.3823V50.5905V50.7987C52.7374 50.7987 52.7374 50.7987 52.7374 51.0068C52.7374 51.0068 52.7374 51.215 52.5297 51.215V51.4232V51.6314C52.5297 52.0478 52.3221 52.256 52.3221 52.4642C52.3221 52.6724 52.3221 52.8806 52.1145 52.8806C52.1145 53.0888 51.9068 53.2969 51.9068 53.2969C51.9068 53.2969 51.9068 53.2969 51.6992 53.2969L51.4916 53.0888V53.2969C51.4916 53.5051 51.4916 53.7133 51.4916 53.7133H51.6992C51.6992 53.7133 51.6992 53.7133 51.9068 53.7133C51.9068 53.7133 51.9068 53.7133 51.9068 53.9215V54.1297C51.9068 54.3379 51.9068 54.5461 51.9068 54.5461C51.9068 54.5461 51.9068 54.9625 51.9068 55.1707C51.9068 55.1707 51.9068 55.1707 51.9068 55.587C51.9068 55.7952 51.9068 56.0034 51.9068 56.0034C51.9068 56.0034 52.1145 56.2116 52.1145 56.628C52.1145 57.0444 52.3221 57.0444 52.3221 57.0444C52.5297 57.0444 52.5297 57.0444 52.5297 57.0444C52.5297 57.0444 52.5297 57.0444 52.7374 57.0444C52.945 57.0444 52.945 57.0444 52.945 57.0444H52.7374C52.7374 57.0444 52.7374 57.2526 52.7374 57.4608C52.7374 57.669 52.7374 57.669 52.7374 57.669C52.7374 57.669 52.7374 57.669 52.945 57.4608C52.945 57.2526 53.1526 57.2526 53.1526 57.2526C53.1526 57.4608 53.1526 57.669 53.5679 57.669C53.1526 57.4608 53.5679 57.4608 53.9831 56.8362ZM52.5297 52.4642C52.5297 52.6724 52.5297 52.6724 52.5297 52.4642C52.5297 52.6724 52.5297 52.6724 52.5297 52.4642C52.5297 52.6724 52.5297 52.6724 52.5297 52.4642ZM57.5128 58.9181C57.5128 59.1263 57.5128 59.1263 57.5128 58.9181C57.7204 58.9181 57.7204 58.9181 57.5128 58.9181ZM57.7204 56.628C57.928 56.628 57.928 56.628 57.7204 56.628C57.928 56.628 57.928 56.628 57.7204 56.628ZM57.928 57.669C57.928 57.669 58.1357 57.669 58.1357 57.4608C58.1357 57.2526 58.1357 57.2526 57.928 57.2526C57.928 57.2526 57.7204 57.2526 57.7204 57.4608C57.7204 57.4608 57.7204 57.669 57.928 57.669ZM57.7204 55.7952C57.7204 55.7952 57.7204 56.0034 57.7204 55.7952C57.928 56.0034 57.928 56.0034 57.7204 55.7952C57.928 55.7952 57.928 55.7952 57.7204 55.7952C57.928 55.7952 57.7204 55.7952 57.7204 55.7952ZM58.1357 57.4608C58.1357 57.2526 58.1357 57.2526 58.1357 57.4608C58.1357 57.2526 58.1357 57.2526 58.1357 57.4608C58.1357 57.4608 58.1357 57.669 58.1357 57.4608C58.1357 57.669 58.1357 57.4608 58.1357 57.4608ZM59.1738 56.628C59.1738 56.8362 59.1738 56.8362 59.1738 57.0444V57.2526C59.1738 57.2526 59.1738 57.2526 59.3814 57.0444C59.5891 56.8362 59.3814 56.8362 59.1738 56.628C59.3814 56.628 59.3814 56.628 59.1738 56.628ZM59.5891 56.4198C59.5891 56.4198 59.7967 56.4198 59.5891 56.4198C59.7967 56.2116 59.7967 56.2116 59.5891 56.4198C59.5891 56.2116 59.5891 56.2116 59.5891 56.4198ZM60.0043 57.4608C60.0043 57.4608 60.0043 57.2526 60.0043 57.0444C60.0043 56.8362 60.0043 56.8362 60.0043 56.8362C59.7967 57.0444 59.7967 57.2526 60.0043 57.4608C60.0043 57.4608 60.0043 57.669 60.0043 57.4608ZM60.2119 56.2116C60.2119 56.2116 60.2119 56.4198 60.2119 56.2116C60.2119 56.4198 60.2119 56.2116 60.2119 56.2116ZM60.2119 57.4608C60.2119 57.2526 60.2119 57.2526 60.2119 57.4608V57.4608ZM60.4196 57.0444C60.2119 57.2526 60.2119 57.2526 60.4196 56.8362C60.4196 56.628 60.6272 56.628 60.6272 56.628C60.8348 56.628 60.8348 56.4198 60.8348 56.4198L61.0424 56.628C61.0424 56.628 61.0424 56.628 61.0424 56.8362C61.0424 56.8362 61.0424 57.0444 60.8348 57.0444C60.6272 56.8362 60.4196 56.8362 60.4196 57.0444ZM60.6272 52.8806C60.6272 52.6724 60.6272 52.6724 60.6272 52.8806C60.6272 52.6724 60.4196 52.6724 60.6272 52.8806C60.2119 53.0888 60.2119 53.2969 60.4196 53.2969C60.6272 53.0888 60.6272 53.0888 60.6272 52.8806ZM60.8348 55.3789C60.6272 55.587 60.6272 55.587 60.6272 55.587C60.6272 55.3789 60.6272 55.3789 60.8348 55.3789C60.6272 55.1707 60.8348 55.1707 60.8348 55.3789C60.8348 55.1707 60.8348 55.1707 60.8348 55.3789ZM60.6272 56.628C60.6272 56.8362 60.6272 56.8362 60.6272 56.628C60.8348 56.628 60.8348 56.628 60.8348 56.628C60.8348 56.628 60.8348 56.628 60.6272 56.628ZM62.2882 49.9659C62.2882 49.9659 62.0806 49.9659 61.8729 49.9659C61.6653 49.9659 61.6653 50.1741 61.6653 50.1741C61.6653 50.1741 61.4577 50.3823 61.4577 50.5905C61.4577 51.0068 61.4577 51.0068 61.6653 50.7987C61.8729 50.7987 61.8729 50.5905 61.8729 50.5905C61.8729 50.5905 61.8729 50.5905 61.8729 50.3823C61.8729 50.3823 61.8729 50.3823 61.8729 50.5905V50.7987C62.0806 50.7987 62.0806 50.5905 62.2882 50.5905C62.2882 50.1741 62.2882 49.9659 62.2882 49.9659ZM61.8729 56.8362C61.6653 56.8362 61.6653 56.8362 61.8729 56.8362C61.8729 56.628 61.8729 56.628 61.8729 56.8362ZM62.0806 53.9215C62.2882 53.7133 62.2882 53.7133 62.0806 53.9215C62.2882 53.9215 62.2882 53.9215 62.0806 53.9215ZM62.2882 53.2969C62.2882 53.2969 62.2882 53.0888 62.2882 53.2969C62.2882 53.0888 62.2882 53.2969 62.2882 53.2969C62.2882 53.5051 62.2882 53.5051 62.2882 53.2969C62.0806 53.5051 62.2882 53.5051 62.2882 53.2969C62.2882 53.5051 62.2882 53.5051 62.2882 53.2969C62.2882 53.5051 62.2882 53.2969 62.2882 53.2969ZM62.2882 51.6314C62.2882 51.4232 62.4958 51.4232 62.2882 51.6314C62.4958 51.6314 62.2882 51.6314 62.2882 51.6314ZM62.4958 54.3379C62.4958 54.3379 62.4958 54.1297 62.4958 54.3379C62.4958 54.1297 62.4958 54.1297 62.4958 54.3379C62.7035 54.3379 62.7035 54.3379 62.4958 54.3379ZM63.1187 47.6758C63.1187 47.884 63.1187 47.884 63.1187 47.6758C63.1187 47.884 63.1187 47.884 63.1187 47.6758Z" fill="#563281"/>
<path d="M67.2711 54.9624C67.0635 54.9624 67.0635 54.9624 67.2711 54.9624C67.0635 54.9624 67.0635 54.9624 67.2711 54.9624ZM68.9322 41.6382C68.9322 41.43 68.9322 41.43 68.9322 41.6382C68.9322 41.43 68.9322 41.43 68.9322 41.2218C68.9322 41.0136 68.9322 41.0136 68.9322 41.0136C68.9322 41.0136 69.1398 41.0136 69.1398 40.8054C69.1398 40.8054 69.1398 40.5972 69.3474 40.389C69.3474 40.1808 69.3474 40.1808 69.555 40.1808H69.7627C69.7627 40.1808 69.7627 40.1808 69.9703 40.1808C70.1779 40.1808 70.1779 40.1808 70.1779 40.1808L70.3855 39.9727C70.3855 40.1808 70.3855 40.1808 70.3855 40.1808C70.3855 40.1808 70.5932 40.1808 70.5932 39.9727L70.8008 39.7645C70.8008 39.7645 70.8008 39.7645 71.0084 39.7645H71.216H71.4237H71.6313C71.6313 39.7645 71.8389 39.7645 71.6313 39.7645C71.4237 39.7645 71.4237 39.7645 71.6313 39.9727C71.6313 39.9727 71.8389 40.1808 71.8389 39.9727C72.0466 39.9727 72.0466 39.9727 72.0466 40.1808C72.0466 40.1808 72.2542 40.389 72.4618 40.1808H72.6694C72.6694 40.1808 72.6694 40.1808 72.8771 40.1808H73.0847C73.0847 40.1808 73.2923 40.1808 73.2923 40.389L73.4999 40.5972C73.7076 40.5972 73.9152 40.8054 74.1228 41.0136C74.1228 41.0136 74.1228 41.0136 74.3305 41.2218C74.3305 41.2218 74.5381 41.43 74.5381 41.6382C74.5381 41.8464 74.7457 42.0546 74.9533 42.2628V42.4709C74.9533 42.6791 74.9533 42.6791 74.9533 42.8873V42.6791C74.9533 42.6791 74.9533 42.6791 74.9533 42.8873C74.9533 43.0955 74.9533 43.0955 74.9533 43.3037C74.9533 43.7201 74.7457 43.9283 74.5381 43.9283C74.5381 43.9283 74.5381 43.9283 74.5381 43.7201V43.5119V43.3037C74.5381 43.3037 74.5381 43.3037 74.5381 43.5119C74.3305 43.7201 74.3305 43.9283 74.1228 44.1365C74.1228 44.3447 74.1228 44.5529 74.1228 44.7611C74.1228 44.7611 74.1228 44.9692 73.9152 45.1774L73.7076 45.3856C73.7076 45.3856 73.7076 45.3856 73.4999 45.5938C73.4999 45.5938 73.4999 45.5938 73.4999 45.802V46.0102C73.4999 46.0102 73.4999 46.2184 73.2923 46.2184V46.4266V46.6348C73.2923 46.6348 73.2923 46.843 73.0847 46.843C73.0847 47.0512 72.8771 47.0512 72.8771 47.2593V47.4675C72.8771 47.4675 72.6694 47.4675 72.6694 47.6757C72.6694 47.8839 72.6694 47.8839 72.4618 47.8839C72.4618 47.8839 72.4618 47.8839 72.4618 48.0921C72.4618 48.3003 72.4618 48.3003 72.2542 48.3003C72.2542 48.3003 72.2542 48.5085 72.0466 48.5085V48.7167C72.0466 48.7167 72.0466 48.7167 72.0466 48.9249C72.0466 49.1331 72.0466 49.1331 71.8389 48.9249C71.8389 48.9249 71.8389 49.1331 71.6313 49.1331V49.3413C71.8389 49.5495 71.8389 49.5495 71.8389 49.3413C71.8389 49.3413 71.8389 49.1331 72.0466 48.9249C72.2542 48.7167 72.2542 48.7167 72.4618 48.5085C72.6694 48.3003 72.6694 48.3003 72.6694 48.0921C72.6694 48.0921 72.6694 47.8839 72.8771 47.8839H73.0847C73.0847 47.8839 73.0847 48.0921 72.8771 48.0921C72.8771 48.0921 72.8771 48.0921 72.6694 48.3003C72.6694 48.3003 72.6694 48.5085 72.4618 48.7167C72.4618 49.1331 72.2542 49.3413 72.2542 49.5494C72.2542 49.7576 72.0466 49.9658 72.0466 50.174C72.0466 50.3822 72.0466 50.3822 72.0466 50.5904C72.0466 50.7986 72.0466 50.7986 72.0466 50.7986C72.0466 50.7986 72.0466 50.7986 72.2542 50.5904C72.4618 49.9658 72.6694 49.1331 73.0847 48.3003C73.4999 47.4675 73.9152 46.6348 74.3305 46.0102C74.5381 45.802 74.5381 45.5938 74.7457 45.3856C74.7457 45.1774 74.9533 44.9692 74.9533 44.7611C75.161 44.1365 75.3686 43.7201 75.5762 43.0955C75.7838 42.6791 75.9915 42.0546 76.4067 41.43C76.6144 41.2218 76.6144 41.0136 76.6144 41.0136V40.8054L76.822 40.5972C76.822 40.5972 76.822 40.5972 77.0296 40.5972C77.0296 40.389 77.2372 40.389 77.2372 40.389C77.4449 40.5972 77.4449 40.5972 77.4449 40.5972C77.4449 40.5972 77.4449 40.5972 77.4449 40.389V40.1808H77.6525C77.8601 40.1808 77.8601 40.1808 77.8601 40.1808C77.8601 40.1808 77.8601 40.1808 78.0677 40.1808H78.2754L78.483 39.9727L78.6906 40.1808C78.6906 40.1808 78.8982 40.389 79.1059 40.389C79.3135 40.5972 79.5211 40.8054 79.7288 41.2218C79.9364 41.6382 80.144 42.0546 80.144 42.2628C80.144 42.4709 80.144 42.471 80.144 42.8873C80.144 43.3037 80.144 43.3037 80.144 43.7201C80.144 43.9283 80.144 44.3447 79.9364 44.5529C79.9364 44.7611 79.9364 44.9692 79.7288 44.9692C79.7288 44.9692 79.7288 45.1774 79.5211 45.1774C79.5211 45.3856 79.5211 45.3856 79.5211 45.3856V45.5938C79.5211 45.5938 79.5211 45.5938 79.3135 45.5938H79.1059C79.1059 45.5938 79.1059 45.5938 79.1059 45.802C79.1059 46.0102 79.1059 46.0102 79.1059 46.0102C79.1059 46.0102 79.1059 46.2184 79.1059 46.4266C79.1059 46.6348 78.8982 46.843 78.8982 47.0512C78.8982 47.0512 78.8983 47.2593 78.6906 47.2593C78.6906 47.2593 78.483 47.2593 78.483 47.4675C78.483 47.6757 78.2754 47.6757 78.2754 47.6757C78.2754 47.6757 78.2754 47.6757 78.2754 47.8839C78.2754 47.8839 78.2754 47.8839 78.2754 48.0921L78.483 48.3003C78.6906 48.3003 78.8983 48.3003 79.3135 48.3003C79.7288 48.3003 79.9364 48.3003 80.3516 48.0921C80.7669 47.8839 81.3898 47.6757 82.2203 47.0512C82.6355 46.843 82.8432 46.6348 83.0508 46.6348C83.2584 46.4266 83.466 46.2184 83.8813 46.0102C83.8813 46.0102 83.8813 46.0102 83.8813 46.2184C83.6737 46.4266 83.466 46.6348 83.2584 46.843L82.8432 47.4675L82.6355 47.6757C82.6355 47.6757 82.6355 47.6757 82.4279 47.6757C82.4279 47.6757 82.4279 47.6757 82.2203 47.8839C82.0127 47.8839 82.0127 48.0921 82.0127 48.0921C82.0127 48.0921 82.0127 48.0921 82.0127 48.3003C82.0127 48.3003 82.0127 48.3003 81.805 48.3003C81.805 48.3003 81.5974 48.3003 81.5974 48.5085C81.5974 48.5085 81.3898 48.7167 81.1821 48.7167C80.9745 48.7167 80.9745 48.9249 80.9745 48.9249V50.174C80.9745 50.174 80.9745 50.174 80.7669 50.174L80.5593 50.3822H80.3516C80.3516 50.3822 79.9364 50.5904 79.7288 50.5904C79.3135 50.7986 79.1059 50.7986 79.1059 50.5904C78.8982 50.5904 78.8982 50.5904 78.8982 50.5904H78.6906C78.483 50.5904 78.483 50.5904 78.2754 50.5904C78.0677 50.5904 77.8601 50.5904 77.8601 50.5904C77.6525 50.5904 77.6525 50.5904 77.4449 50.3822C77.2372 50.3822 76.822 50.174 76.6144 49.9658C76.4067 49.7576 75.9915 49.3413 75.7838 49.1331C75.5762 48.9249 75.5762 48.7167 75.3686 48.7167V48.5085C75.3686 48.5085 75.3686 48.0921 75.161 47.6757C75.161 47.4675 74.9533 47.2593 74.9533 47.2593V47.0512C74.7457 47.4675 74.5381 47.8839 74.3305 48.3003C74.1228 48.5085 74.1228 48.9249 73.9152 49.1331C73.7076 49.3413 73.7076 49.5494 73.7076 49.7576V49.9658V50.174L73.4999 50.5904L73.2923 50.7986C73.2923 51.0068 73.2923 51.0068 73.2923 51.0068C73.2923 51.0068 73.0847 51.215 73.0847 51.4232C72.8771 51.6314 72.8771 51.8396 72.6694 52.2559C72.4618 52.4641 72.4618 52.8805 72.2542 53.0887C72.0466 53.2969 72.0466 53.7133 72.0466 53.7133C72.0466 53.7133 72.0466 53.9215 71.8389 53.9215C71.8389 53.9215 71.8389 54.1297 71.6313 54.1297C71.6313 54.3378 71.6313 54.3378 71.6313 54.3378V54.546V54.7542V54.9624C71.6313 54.9624 71.6313 54.9624 71.6313 55.1706V55.3788C71.6313 55.587 71.6313 55.587 71.6313 55.587C71.6313 55.587 71.6313 55.587 71.6313 55.7952C71.6313 56.0034 71.6313 55.7952 71.6313 56.0034V56.4198V56.628C71.6313 56.8361 71.6313 56.8361 71.6313 57.0443C71.6313 57.2525 71.6313 57.2525 71.6313 57.4607C71.6313 57.6689 71.6313 57.6689 71.6313 57.6689V57.8771C71.6313 58.0853 71.6313 58.2935 71.4237 58.5017C71.4237 58.5017 71.2161 58.7099 71.0084 58.7099C70.8008 58.7099 70.8008 58.9181 70.8008 58.9181C70.8008 58.9181 70.5932 58.9181 70.5932 59.1262C70.5932 59.1262 70.5932 59.1262 70.5932 59.3344C70.3855 59.7508 70.1779 59.959 69.7627 59.959C69.3474 59.959 69.3474 59.959 69.3474 59.5426C69.3474 59.3344 69.3474 59.3344 69.3474 59.5426C69.3474 59.7508 69.1398 59.959 69.1398 59.959C68.9321 59.959 68.9321 59.959 68.7245 59.959C68.5169 59.959 68.3093 59.959 68.3093 59.7508C68.1016 59.5426 68.1016 59.5426 68.1016 59.3344C68.1016 59.1262 68.1016 59.1262 68.1016 59.1262C68.1016 59.1262 68.1016 59.1262 68.1016 58.9181V58.7099V58.5017V58.2935V58.0853V57.8771V57.6689C68.1016 57.6689 68.1016 57.6689 68.1016 57.4607C68.1016 57.4607 68.1016 57.2525 67.894 57.2525C67.894 57.0443 67.894 57.0443 67.894 56.8361V56.628C67.894 56.628 67.894 56.4198 67.894 56.2116C67.894 56.0034 67.894 55.7952 67.894 55.7952V55.587C67.894 55.3788 67.894 55.1706 67.894 54.9624C67.894 54.7542 67.894 54.7542 67.894 54.546C67.894 54.3378 67.894 54.3378 67.894 54.3378V54.1297C67.894 53.9215 67.894 53.9215 67.894 53.7133C67.894 53.5051 67.894 53.2969 67.894 53.2969C67.894 53.2969 67.894 53.2969 68.1016 53.0887C68.3093 53.0887 68.3093 52.8805 68.3093 52.6723V52.4641V52.6723V52.8805C68.3093 52.8805 68.3093 53.0887 68.5169 53.0887C68.5169 53.0887 68.7245 53.0887 68.5169 53.0887C68.3093 53.0887 68.3093 53.0887 68.3093 53.0887H68.1016C68.1016 53.0887 68.1016 53.0887 68.1016 53.2969C68.1016 53.5051 67.894 53.7133 67.894 53.7133C67.894 53.7133 67.894 53.7133 67.894 53.9215C67.894 54.1297 67.894 54.1297 67.894 54.3378C67.894 54.546 67.894 54.546 68.1016 54.546C68.1016 54.546 67.894 54.546 67.894 54.7542V54.9624C67.894 54.9624 67.894 54.9624 67.894 55.1706V55.3788C67.894 55.587 67.894 55.587 67.894 55.587C67.894 55.587 67.894 55.587 67.894 55.3788C67.894 55.3788 67.894 55.3788 67.894 55.1706C67.894 55.1706 67.894 55.1706 67.894 54.9624C67.894 54.9624 67.894 54.7542 68.1016 54.7542C68.1016 54.7542 68.1016 54.7542 68.1016 54.546C68.1016 54.3378 68.1016 54.3378 68.1016 54.3378C68.1016 54.3378 68.1016 54.3378 68.1016 54.546C68.1016 54.7542 68.1016 54.7542 68.1016 54.546C68.1016 54.3378 68.1016 54.1297 68.1016 54.1297C68.1016 54.1297 68.3093 53.9215 68.3093 53.7133C68.3093 53.7133 68.3093 53.5051 68.3093 53.7133C68.3093 53.9215 68.5169 53.9215 68.5169 53.9215V53.7133V53.5051L68.7245 53.2969C68.7245 53.0887 68.7245 52.8805 68.9322 53.0887C68.9322 53.0887 68.9322 53.2969 68.9322 53.7133C68.9322 53.9215 68.9322 54.1297 68.9322 54.1297C68.9322 54.1297 68.9321 54.1297 69.1398 53.9215C69.1398 53.7133 69.1398 53.7133 69.1398 53.7133C69.1398 53.7133 69.3474 53.5051 69.3474 53.2969C69.3474 52.8805 69.3474 52.6723 69.3474 52.2559C69.3474 51.8396 69.3474 51.8396 69.3474 51.8396C69.3474 51.8396 69.3474 51.8396 69.3474 52.0477V52.2559V52.0477C69.3474 52.0477 69.3474 52.0477 69.3474 51.8396C69.3474 51.8396 69.555 51.6314 69.555 51.215C69.555 50.7986 69.555 50.5904 69.3474 50.5904C69.3474 50.5904 69.1398 50.5904 69.3474 50.3822C69.555 50.174 69.3474 50.174 69.555 49.9658V49.7576L69.7627 49.5494L69.9703 49.3413C69.9703 49.1331 69.9703 49.1331 69.9703 49.1331C69.9703 49.1331 69.9703 49.1331 69.7627 49.1331C69.7627 49.1331 69.7627 49.1331 69.9703 48.9249C70.1779 48.7167 70.1779 48.7167 70.1779 48.5085C70.1779 48.5085 70.1779 48.5085 70.3855 48.5085C70.3855 48.5085 70.3855 48.3003 70.5932 48.3003C70.5932 48.3003 70.8008 48.0921 70.8008 47.8839C70.8008 47.6757 70.8008 47.6757 70.8008 47.6757C70.8008 47.6757 70.8008 47.4675 70.8008 47.2593C70.8008 47.0512 70.5932 46.843 70.5932 46.843C70.5932 46.843 70.5932 46.843 70.3855 46.843C70.1779 46.843 70.3855 46.843 70.3855 47.0512C70.3855 47.0512 70.3855 47.0512 70.1779 47.0512H69.9703C69.9703 47.0512 69.9703 46.843 69.9703 46.6348L70.1779 45.5938C70.1779 45.3856 70.1779 45.1774 70.1779 44.9692C70.3855 44.9692 70.3855 44.9692 70.1779 45.1774V45.3856V45.5938C70.1779 45.5938 70.1779 45.5938 70.3855 45.3856C70.3855 45.1774 70.3855 45.1774 70.5932 45.3856C70.5932 45.3856 70.8008 45.3856 70.8008 45.1774C70.8008 45.1774 70.8008 44.9692 70.8008 44.7611C70.8008 44.5529 70.8008 44.5529 70.8008 44.3447C70.8008 44.3447 70.8008 44.3447 70.8008 44.5529C70.8008 44.5529 70.8008 44.5529 70.5932 44.5529C70.5932 44.5529 70.3855 44.5529 70.3855 44.7611C70.3855 44.9692 70.1779 44.9692 70.1779 44.9692C70.1779 44.9692 70.1779 44.9692 70.1779 44.5529C70.1779 44.1365 70.1779 43.9283 70.1779 43.9283C70.1779 43.9283 70.1779 43.9283 70.1779 44.1365V44.3447C70.1779 44.3447 69.9703 44.3447 69.9703 44.7611C69.9703 45.1774 69.9703 45.3856 69.7627 45.3856C69.7627 45.5938 69.7627 45.5938 69.555 45.802C69.555 45.802 69.3474 46.0102 69.3474 45.802C69.3474 45.802 69.3474 45.802 69.1398 46.0102C69.1398 46.2184 69.1398 46.2184 69.1398 46.2184C69.1398 46.2184 69.1398 46.2184 69.3474 46.4266C69.3474 46.4266 69.555 46.4266 69.555 46.6348V46.843V46.6348C69.555 46.6348 69.555 46.843 69.555 47.0512C69.555 47.2593 69.3474 47.2593 69.3474 47.2593C69.3474 47.2593 69.3474 47.2593 69.3474 47.0512C69.3474 46.843 69.3474 46.4266 69.555 45.802C69.555 45.1774 69.7627 44.7611 69.7627 44.3447C69.7627 43.9283 69.9703 43.7201 69.9703 43.5119C69.9703 43.3037 69.9703 43.3037 69.9703 43.3037C69.9703 43.3037 69.9703 43.3037 69.7627 43.5119C69.7627 43.7201 69.7627 43.7201 69.555 43.9283V44.1365C69.555 44.1365 69.555 44.3447 69.3474 44.3447C69.1398 44.3447 69.1398 44.3447 69.1398 44.5529C69.1398 44.7611 69.1398 44.5529 69.3474 44.5529H69.555C69.555 44.5529 69.555 44.5529 69.555 44.7611C69.555 44.7611 69.555 44.7611 69.555 44.9692H69.7627C69.7627 44.9692 69.7627 44.9692 69.9703 44.9692C69.9703 44.9692 70.1779 44.9692 70.1779 45.1774C70.1779 45.1774 70.1779 45.1774 69.9703 45.1774C69.9703 45.1774 69.7627 45.1774 69.7627 45.3856V45.5938C69.7627 45.5938 69.555 45.5938 69.555 45.802C69.555 46.0102 69.3474 46.2184 69.3474 46.2184C69.3474 46.4266 69.3474 46.6348 69.3474 46.6348C69.3474 46.6348 69.3474 46.6348 69.555 46.6348L69.7627 46.4266V46.6348V46.843C69.7627 46.843 69.7627 47.0512 69.555 47.2593C69.555 47.4675 69.555 47.4675 69.3474 47.4675V47.6757C69.3474 47.6757 69.1398 47.6757 69.1398 47.8839C69.1398 48.0921 69.1398 48.0921 69.1398 48.0921C69.1398 48.3003 69.1398 48.3003 69.1398 48.3003H69.3474C69.3474 48.3003 69.3474 48.3003 69.3474 48.5085C69.3474 48.7167 69.3474 48.7167 69.3474 48.7167C69.3474 48.9249 69.1398 48.9249 69.1398 48.5085V48.3003C69.1398 48.3003 69.1398 48.3003 69.1398 48.5085V48.7167V48.9249V49.1331C69.1398 49.1331 69.1398 49.1331 69.1398 49.3413C69.1398 49.5495 69.1398 49.5494 68.9322 49.7576C68.9322 49.7576 68.9322 49.7576 68.9322 49.9658C68.9322 49.9658 68.9322 49.9658 68.9322 50.174C68.9322 50.174 68.9322 50.174 68.9322 50.3822C68.9322 50.3822 68.9322 50.3822 68.9322 50.5904C68.9322 50.7986 68.9321 50.7986 68.7245 50.7986C68.7245 50.7986 68.7245 50.7986 68.7245 51.0068C68.7245 51.215 68.7245 51.215 68.7245 51.215C68.7245 51.215 68.9322 51.215 68.9322 51.4232C68.9322 51.6314 68.9321 51.6314 68.7245 51.6314C68.7245 51.6314 68.7245 51.6314 68.7245 51.8396C68.7245 51.8396 68.7245 52.0477 68.5169 52.0477C68.5169 52.0477 68.5169 51.8396 68.5169 51.6314C68.5169 51.4232 68.5169 51.215 68.5169 51.0068V50.7986C68.5169 50.7986 68.5169 50.7986 68.5169 51.0068C68.5169 51.0068 68.5169 51.215 68.5169 51.0068V50.7986C68.5169 50.5904 68.5169 50.5904 68.5169 50.3822C68.5169 50.174 68.5169 49.9658 68.5169 49.7576C68.5169 49.5494 68.5169 49.5495 68.5169 49.3413C68.5169 49.1331 68.5169 49.1331 68.5169 49.1331C68.5169 49.1331 68.5169 49.1331 68.5169 49.3413C68.5169 49.5495 68.5169 49.5494 68.5169 49.5494C68.7245 49.1331 68.7245 48.9249 68.5169 48.7167C68.3093 48.7167 68.3093 48.5085 68.5169 48.3003V48.0921V47.8839C68.5169 47.6757 68.5169 47.6757 68.5169 47.6757C68.5169 47.6757 68.5169 47.6757 68.5169 47.4675V47.2593H68.7245C68.7245 47.2593 68.7245 47.2593 68.7245 47.0512C68.7245 46.843 68.7245 46.843 68.9322 47.0512C68.9322 47.0512 68.9321 47.0512 69.1398 47.0512C69.1398 47.0512 69.1398 47.0512 69.1398 46.843V46.6348V46.4266C69.1398 46.2184 69.1398 46.2184 69.1398 46.0102C69.1398 45.802 69.1398 45.802 68.9322 45.802C68.9322 45.802 69.1398 45.5938 69.1398 45.3856V44.9692C69.1398 44.9692 69.1398 44.9692 69.3474 44.7611C69.3474 44.5529 69.3474 44.1365 69.555 43.7201C69.555 43.3037 69.7627 43.0955 69.7627 42.8873C69.7627 42.6791 69.7627 42.6791 69.7627 42.6791H69.555C69.555 42.8873 69.555 42.6791 69.555 42.6791C69.555 42.4709 69.555 42.2628 69.7627 41.8464C69.7627 41.6382 69.7627 41.43 69.9703 41.43C69.9703 41.2218 69.9703 41.2218 69.9703 41.0136C69.9703 40.8054 69.9703 40.8054 70.1779 40.5972C68.7245 42.0546 68.7245 41.8464 68.9322 41.6382ZM67.4788 52.8805C67.4788 52.8805 67.6864 52.8805 67.4788 52.8805C67.4788 53.0887 67.4788 53.0887 67.4788 53.0887C67.4788 53.0887 67.4788 53.0887 67.4788 52.8805C67.4788 53.0887 67.4788 52.8805 67.4788 52.8805ZM67.6864 53.5051C67.6864 53.7133 67.6864 53.7133 67.6864 53.5051V53.5051ZM67.6864 54.3378C67.894 54.3378 67.894 54.1297 67.894 54.1297C67.894 54.1297 67.894 54.1297 67.894 54.3378C67.894 54.546 67.894 54.546 67.6864 54.546H67.4788C67.6864 54.7542 67.6864 54.7542 67.6864 54.3378V54.1297C67.6864 54.1297 67.6864 54.1297 67.6864 54.3378ZM67.6864 49.3413C67.6864 49.5495 67.6864 49.5495 67.6864 49.3413C67.6864 49.5495 67.6864 49.5495 67.6864 49.3413C67.6864 49.5495 67.6864 49.5495 67.6864 49.3413ZM68.1016 50.5904C68.3093 50.5904 68.3093 50.7986 68.3093 50.7986V51.0068V51.215L68.1016 51.4232V51.0068C68.1016 51.215 68.1016 51.0068 68.1016 50.5904C68.1016 50.7986 68.1016 50.7986 68.1016 50.5904ZM68.1016 50.174C68.3093 50.174 68.3093 50.174 68.1016 50.174C68.3093 50.3822 68.1016 50.5904 68.1016 50.3822C68.1016 50.3822 68.1016 50.3822 68.1016 50.174ZM68.1016 53.2969C68.3093 53.0887 68.3093 53.0887 68.1016 53.2969C68.3093 53.5051 68.3093 53.5051 68.3093 53.2969C68.3093 53.2969 68.3093 53.0887 68.3093 53.2969C68.3093 53.2969 68.3093 53.5051 68.1016 53.5051H67.894V53.2969C68.1016 53.2969 68.1016 53.2969 68.1016 53.2969ZM68.1016 55.587C68.3093 55.587 68.3093 55.587 68.1016 55.587C68.1016 55.3788 68.1016 55.3788 68.1016 55.587ZM68.3093 54.3378C68.3093 54.546 68.3093 54.546 68.1016 54.7542C68.3093 54.7542 68.1016 54.7542 68.3093 54.3378C68.3093 54.1297 68.3093 54.1297 68.3093 54.3378ZM68.5169 43.3037C68.3093 43.3037 68.3093 43.5119 68.3093 43.5119V43.7201C68.3093 43.9283 68.3093 43.9283 68.5169 43.9283C68.5169 43.9283 68.5169 43.7201 68.7245 43.7201C68.5169 43.5119 68.5169 43.5119 68.5169 43.3037ZM68.3093 56.2116C68.3093 56.2116 68.3093 56.4198 68.3093 56.2116C68.1016 56.4198 68.3093 56.628 68.3093 56.628C68.3093 56.628 68.3093 56.628 68.3093 56.4198C68.3093 56.2116 68.3093 56.4198 68.3093 56.2116ZM68.7245 53.7133C68.7245 53.7133 68.5169 53.7133 68.7245 53.7133C68.5169 53.7133 68.5169 53.7133 68.7245 53.7133C68.5169 53.7133 68.5169 53.5051 68.7245 53.7133C68.5169 53.5051 68.5169 53.5051 68.5169 53.5051C68.5169 53.5051 68.5169 53.5051 68.5169 53.2969C68.5169 53.2969 68.5169 53.0887 68.7245 53.0887C68.7245 53.0887 68.7245 53.0887 68.7245 53.2969V53.5051C68.7245 53.5051 68.7245 53.5051 68.7245 53.7133ZM68.7245 49.9658C68.7245 49.7576 68.7245 49.7576 68.7245 49.9658C68.7245 49.7576 68.7245 49.7576 68.7245 49.9658C68.9321 49.7576 68.9321 49.7576 68.7245 49.9658ZM68.7245 51.6314C68.9321 51.6314 68.9321 51.6314 68.7245 51.6314V51.6314ZM68.9322 45.802C68.9322 46.0102 68.9322 45.802 68.9322 45.802C68.9322 45.802 69.1398 45.802 68.9322 45.802ZM69.1398 48.0921C69.1398 48.3003 69.1398 48.3003 69.1398 48.0921C69.1398 48.3003 69.1398 48.3003 69.1398 48.3003C69.1398 48.3003 69.1398 48.3003 69.1398 48.0921ZM69.3474 51.0068C69.3474 51.215 69.3474 51.215 69.3474 51.0068C69.3474 51.215 69.3474 51.0068 69.3474 51.0068ZM69.555 44.3447C69.555 44.1365 69.555 44.1365 69.555 44.3447C69.555 44.1365 69.3474 44.1365 69.555 44.3447C69.3474 44.3447 69.3474 44.3447 69.555 44.3447ZM69.7627 43.9283C69.7627 43.7201 69.555 43.7201 69.7627 43.9283C69.555 43.7201 69.555 43.9283 69.7627 43.9283C69.555 44.1365 69.555 44.1365 69.7627 43.9283C69.555 44.1365 69.7627 43.9283 69.7627 43.9283ZM69.555 48.9249C69.7627 48.9249 69.7627 48.9249 69.555 48.9249C69.7627 48.9249 69.7627 48.9249 69.555 48.9249C69.555 49.1331 69.555 49.1331 69.555 48.9249ZM69.7627 53.7133C69.7627 53.9215 69.7627 53.9215 69.7627 53.7133C69.7627 53.7133 69.9703 53.7133 69.7627 53.7133C69.7627 53.5051 69.7627 53.5051 69.7627 53.7133ZM69.9703 50.5904V50.7986C69.9703 51.0068 69.9703 51.0068 69.9703 51.215C69.9703 51.4232 69.9703 51.6314 69.9703 51.8396C69.9703 51.8396 69.9703 51.8396 69.9703 51.6314C70.1779 51.0068 70.1779 50.7986 70.1779 50.7986C70.1779 50.7986 70.3855 50.5904 70.3855 50.3822C70.3855 50.174 70.3855 49.9658 70.3855 49.9658C70.3855 49.9658 70.1779 49.9658 70.1779 50.174C70.1779 50.5904 70.1779 50.5904 69.9703 50.5904ZM70.1779 39.9727C70.1779 39.7645 70.1779 39.7645 70.1779 39.9727V39.9727ZM71.0084 49.3413C70.8008 49.3413 70.8008 49.5494 70.8008 49.7576C70.8008 49.9658 70.8008 50.174 70.5932 50.3822C70.5932 50.3822 70.5932 50.5904 70.5932 50.7986C70.5932 51.0068 70.5932 51.215 70.5932 51.215C70.5932 51.4232 70.5932 51.4232 70.5932 51.6314C70.5932 51.8396 70.5932 51.8396 70.5932 51.8396V52.0477V52.2559C70.5932 52.4641 70.5932 52.4641 70.5932 52.6723C70.5932 52.8805 70.5932 53.0887 70.5932 53.2969C70.5932 53.5051 70.5932 53.5051 70.5932 53.7133V53.9215C70.5932 53.9215 70.5932 53.9215 70.5932 54.1297V54.546C70.5932 54.7542 70.5932 54.7542 70.5932 54.9624C70.5932 55.1706 70.5932 55.1706 70.5932 55.1706V55.3788C70.5932 55.3788 70.5932 55.3788 70.8008 55.1706C70.8008 54.9624 71.0084 54.9624 71.0084 54.7542C71.0084 54.546 71.0084 54.546 71.216 54.546C71.216 54.546 71.2161 54.3378 71.4237 54.1297C71.6313 53.9215 71.4237 53.7133 71.6313 53.2969V53.0887V52.8805C71.6313 52.6723 71.6313 52.4641 71.6313 52.2559C71.6313 52.0477 71.4237 51.8396 71.4237 51.8396V51.6314C71.4237 51.6314 71.4237 51.4232 71.4237 51.0068C71.4237 50.7986 71.4237 50.7986 71.4237 50.5904C71.4237 50.3822 71.4237 50.3822 71.4237 50.3822C71.4237 50.174 71.4237 49.9658 71.4237 49.7576C71.2161 49.7576 71.2161 49.5495 71.0084 49.3413C71.0084 49.5495 71.0084 49.3413 71.0084 49.3413ZM70.5932 54.1297C70.3855 54.1297 70.3855 54.1297 70.5932 54.1297C70.3855 53.9215 70.3855 53.9215 70.5932 54.1297C70.5932 53.9215 70.5932 53.9215 70.5932 54.1297C70.5932 53.9215 70.5932 53.9215 70.5932 54.1297ZM71.4237 51.8396C71.4237 51.6314 71.4237 51.8396 71.4237 51.8396V51.8396ZM71.6313 56.2116C71.8389 56.2116 71.8389 56.2116 71.8389 56.4198C71.8389 56.628 71.8389 56.628 71.8389 56.628C71.8389 56.628 71.8389 56.628 71.6313 56.4198C71.4237 56.4198 71.4237 56.2116 71.6313 56.2116ZM72.0466 50.5904C72.0466 50.3822 71.8389 50.3822 72.0466 50.5904C71.8389 50.3822 71.8389 50.5904 71.8389 50.5904C71.8389 50.5904 71.8389 50.5904 71.8389 50.7986C71.6313 51.0068 71.6313 51.0068 71.8389 51.0068C71.8389 51.0068 71.8389 51.0068 72.0466 51.0068C72.2542 51.0068 72.0466 51.0068 72.2542 50.7986C72.0466 50.5904 72.0466 50.5904 72.0466 50.5904ZM72.2542 51.4232C72.2542 51.4232 72.0466 51.4232 72.0466 51.6314C72.0466 51.8396 72.0466 51.8396 71.8389 51.8396C71.8389 51.8396 71.8389 51.8396 71.8389 52.0477V52.2559L72.0466 52.0477C72.0466 51.8396 72.0466 51.8396 72.2542 51.4232C72.2542 51.6314 72.2542 51.4232 72.2542 51.4232ZM71.8389 55.7952C71.8389 56.0034 71.8389 56.0034 71.8389 55.7952V55.7952ZM72.0466 54.7542C72.0466 54.9624 72.0466 54.9624 72.0466 54.7542C71.8389 54.9624 71.8389 54.7542 72.0466 54.7542ZM72.4618 53.7133C72.4618 53.7133 72.2542 53.7133 72.4618 53.7133C72.2542 53.7133 72.4618 53.7133 72.4618 53.7133ZM72.8771 51.8396C72.8771 51.8396 72.8771 52.0477 72.8771 51.8396C72.6694 52.0477 72.6694 52.0477 72.8771 51.8396C72.6694 51.8396 72.8771 51.6314 72.8771 51.6314H73.0847C72.8771 51.8396 72.8771 51.8396 72.8771 51.8396C72.8771 51.8396 72.6694 51.8396 72.8771 51.8396ZM73.2923 47.6757C73.2923 47.4675 73.2923 47.4675 73.4999 47.4675C73.4999 47.2593 73.4999 47.4675 73.2923 47.6757C73.4999 47.4675 73.2923 47.6757 73.2923 47.6757C73.0847 47.8839 73.0847 47.8839 73.2923 47.6757ZM75.9915 46.4266C76.1991 46.2184 76.1991 46.2184 76.1991 46.0102C75.9915 46.0102 75.7838 46.2184 75.9915 46.4266C75.7838 46.4266 75.7838 46.4266 75.9915 46.4266ZM75.9915 45.802C75.9915 46.0102 75.9915 46.0102 75.9915 45.802C76.1991 46.0102 76.1991 45.802 75.9915 45.802C76.1991 45.5938 75.9915 45.3856 75.9915 45.3856C75.9915 45.5938 75.9915 45.5938 75.9915 45.802Z" fill="#563281"/>
<path d="M90.5256 31.4368C90.5256 31.2287 90.7332 31.2287 90.9409 31.4368C91.5637 31.8532 91.979 32.0614 92.1866 32.0614C92.3943 32.0614 92.6019 32.2696 92.8095 32.4778C93.0171 32.686 93.2248 32.8942 93.2248 32.8942C93.2248 32.8942 93.2248 33.1024 93.4324 33.1024C93.64 33.3106 93.64 33.7269 93.4324 34.3515C93.4324 34.9761 93.2248 35.6007 93.0171 36.2252C92.8095 36.4334 92.8095 36.6416 92.8095 36.6416C92.8095 36.6416 92.8095 36.6416 93.0171 36.6416C93.0171 36.6416 93.0171 36.8498 92.8095 37.2662V37.4744C92.8095 37.4744 92.8095 37.4744 92.8095 37.6826C92.8095 37.6826 92.6019 37.6826 92.6019 37.8908C92.6019 37.8908 92.6019 38.099 92.3943 38.099C92.3943 38.099 92.1866 38.3072 92.1866 38.5153L91.979 38.9317C91.979 38.9317 91.979 39.1399 91.7714 39.1399C91.7714 39.3481 91.5637 39.3481 91.5637 39.3481C91.3561 39.5563 91.3561 39.5563 91.3561 39.5563C91.1485 39.5563 91.1485 39.7645 91.3561 39.9727C91.3561 40.1809 91.3561 40.1809 91.1485 40.3891L90.9409 40.5973C90.9409 40.5973 90.9409 40.8054 90.7332 40.8054C90.7332 40.8054 90.7332 40.8054 90.9409 40.8054C91.1485 40.8054 91.3561 40.8054 91.7714 40.8054C92.1866 40.8054 92.6019 40.8054 93.2248 40.8054C93.4324 40.8054 93.64 40.8054 94.2629 40.8054C94.6782 40.8054 95.0934 40.8054 95.5087 40.8054C96.1315 40.8054 96.7544 40.8054 96.9621 40.8054C97.1697 40.8054 97.3773 40.8054 97.5849 40.8054C97.7926 40.8054 97.7926 40.8054 97.7926 40.8054C97.5849 40.8054 97.3773 41.0136 96.7544 41.43C96.5468 41.6382 96.1316 41.6382 95.9239 41.8464C95.7163 42.0546 95.5087 42.0546 95.5087 42.0546C95.5087 42.0546 95.5087 42.0546 95.301 42.0546C95.0934 42.0546 95.0934 42.0546 95.0934 42.0546C95.0934 42.0546 94.8858 42.2628 94.6782 42.2628C94.4705 42.2628 94.4705 42.2628 94.2629 42.2628C94.2629 42.2628 94.0553 42.2628 94.2629 42.2628C94.2629 42.2628 94.0553 42.2628 93.64 42.471H93.4324H93.2248C93.2248 42.471 93.0171 42.471 92.8095 42.471H92.6019H92.3943C92.3943 42.471 92.3943 42.471 92.1866 42.471C92.1866 42.471 91.979 42.471 91.7714 42.471C91.5638 42.471 91.3561 42.471 91.3561 42.6792H91.1485C91.1485 42.6792 90.9409 42.6792 90.7332 42.6792C90.5256 42.6792 90.318 42.8874 90.1104 42.8874C90.1104 43.0955 89.9027 43.0955 89.9027 43.3037C89.9027 43.5119 89.9027 43.7201 89.6951 43.9283C89.4875 44.1365 89.4875 44.3447 89.4875 44.3447H89.2799C89.2799 44.3447 89.2799 44.3447 89.0722 44.3447V44.5529C89.0722 44.7611 89.2799 44.7611 89.0722 44.9693C89.0722 45.1775 89.0722 45.1775 89.0722 45.1775C89.0722 45.1775 89.0722 45.1775 89.2799 45.1775C89.2799 45.1775 89.2799 45.1775 89.2799 45.3856C89.2799 45.3856 89.2799 45.3856 89.0722 45.5938C88.8646 45.802 89.0722 45.5938 88.8646 45.5938C88.8646 45.5938 88.8646 45.5938 88.8646 45.802C88.8646 45.802 88.8646 46.0102 88.657 46.0102C88.4493 46.0102 88.4493 46.0102 88.4493 46.2184C88.4493 46.2184 88.4493 46.2184 88.4493 46.4266C88.4493 46.6348 88.4493 46.4266 88.4493 46.6348C88.4493 47.0512 88.4493 47.0512 88.4493 47.0512L88.2417 47.2594C88.2417 47.4676 88.2417 47.4676 88.0341 47.4676C88.0341 47.4676 88.0341 47.6758 88.0341 47.8839C88.0341 48.0921 88.0341 48.0921 88.0341 48.0921C88.0341 48.0921 87.8265 48.0921 87.8265 48.3003C87.8265 48.5085 87.8265 48.5085 87.8265 48.5085C87.8265 48.5085 87.8265 48.5085 87.8265 48.7167C87.8265 48.9249 87.8265 48.9249 87.8265 48.7167C87.8265 48.9249 87.6188 48.9249 87.6188 49.1331C87.6188 49.3413 87.4112 49.5495 87.4112 49.7577C87.4112 49.9659 87.4112 50.174 87.4112 50.174C87.4112 50.3822 87.4112 50.5904 87.4112 50.5904C87.4112 50.7986 87.4112 50.7986 87.2036 50.7986V51.0068C87.2036 51.0068 87.2036 51.0068 87.2036 51.215C87.2036 51.4232 87.2036 51.4232 87.2036 51.8396V52.4641V52.6723V53.5051V53.7133V53.9215V54.1297C87.2036 54.1297 87.2036 54.3379 87.2036 54.5461C87.2036 54.7543 87.2036 54.9624 87.2036 55.1706C87.2036 55.1706 87.2036 55.1706 87.2036 54.9624C87.2036 54.7542 87.2036 54.7542 87.2036 54.7542V54.5461V54.3379V54.5461C87.2036 54.7543 87.2036 54.7542 87.2036 54.9624C87.2036 55.1706 87.2036 55.587 87.4112 55.7952C87.4112 56.0034 87.6188 56.2116 87.6188 56.2116C87.6188 56.2116 87.8265 56.2116 88.0341 56.0034C88.2417 55.7952 88.657 55.587 88.8646 55.3788C89.2799 55.1706 89.6951 54.7543 90.1104 54.5461C90.5256 54.3379 90.9409 53.9215 91.3561 53.7133C91.7714 53.5051 92.1866 53.0887 92.3943 52.8805C92.6019 52.6723 92.8095 52.4641 93.0171 52.256C93.0171 52.256 93.2248 52.0478 93.4324 51.8396C93.64 51.6314 93.8476 51.4232 94.0553 51.215C94.2629 51.0068 94.4705 50.7986 94.6782 50.3822C94.8858 50.174 95.0934 49.9659 95.301 49.7577C95.5087 49.5495 95.7163 49.3413 95.9239 49.3413C96.1316 49.1331 96.3392 48.9249 96.5468 48.7167V48.9249C96.5468 48.9249 96.5468 48.9249 96.7544 48.7167L96.9621 48.5085L96.7544 48.9249C96.7544 49.1331 96.7544 49.3413 96.7544 49.3413H96.5468C96.5468 49.3413 96.3392 49.5495 96.3392 49.7577C96.3392 49.9659 96.1316 50.174 95.9239 50.3822C95.7163 50.5904 95.7163 50.5904 95.7163 50.7986C95.7163 50.7986 95.7163 50.7986 95.5087 51.0068C95.301 51.215 95.301 51.215 95.301 51.215C95.301 51.215 95.0934 51.4232 95.0934 51.6314C95.0934 51.6314 95.0934 51.8396 94.8858 52.0478C94.6782 52.256 94.4705 52.4641 94.2629 52.6723C94.0553 52.8805 93.8476 53.0887 93.64 53.5051C93.4324 53.7133 93.2248 53.9215 93.2248 53.9215L92.8095 54.5461C92.8095 54.5461 92.6019 54.7542 92.3943 54.9624C91.979 55.1706 91.7714 55.3788 91.3561 55.7952C90.9409 56.0034 90.5256 56.4198 90.318 56.628C90.1104 56.8362 89.6951 57.0444 89.6951 57.2525C89.6951 57.4607 89.4875 57.4607 89.4875 57.6689C89.2798 57.8771 89.2799 57.8771 89.0722 58.0853C88.8646 58.2935 88.657 58.5017 88.4493 58.7099C88.2417 58.9181 88.0341 59.1263 88.2417 58.9181C88.2417 58.9181 88.2417 58.9181 88.2417 59.1263C88.2417 59.3345 88.0341 59.3345 88.0341 59.3345C88.0341 59.3345 88.0341 59.3345 88.0341 59.1263C88.0341 59.1263 88.0341 59.3345 87.8265 59.1263H87.6188C87.4112 59.1263 87.4112 59.3345 87.4112 59.3345C87.4112 59.3345 87.4112 59.5426 87.2036 59.5426H86.996C86.996 59.5426 86.996 59.5426 86.7883 59.5426C86.7883 59.5426 86.5807 59.5426 86.5807 59.7508C86.1654 59.959 85.9578 59.959 85.9578 60.1672C85.9578 60.1672 85.9578 60.3754 85.7502 60.3754C85.7502 60.3754 85.5426 60.3754 85.5426 60.5836C85.5426 60.5836 85.3349 60.5836 84.9197 60.7918C84.5044 61 84.2968 61 84.2968 61H84.0892H85.1273C84.9197 61 84.9197 61 84.9197 61H84.7121L84.5044 60.7918C84.5044 60.7918 84.5044 60.5836 84.2968 60.5836C84.2968 60.5836 84.0892 60.5836 84.2968 60.7918C84.2968 60.7918 84.2968 60.7918 84.0892 60.7918C84.0892 60.7918 84.0892 60.7918 83.8815 60.5836C83.8815 60.5836 83.8815 60.5836 83.6739 60.3754C83.6739 60.3754 83.4663 60.1672 83.2587 59.7508C83.051 59.5426 82.8434 59.1263 82.8434 58.9181C82.8434 58.7099 82.8434 58.5017 82.8434 58.5017C82.8434 58.5017 82.8434 58.5017 82.8434 58.2935C82.8434 58.2935 82.8434 58.0853 82.8434 57.8771V57.6689C82.8434 57.6689 82.8434 57.4607 82.8434 57.2525C82.8434 57.0444 82.6358 56.8362 82.8434 56.8362V56.628V56.4198C82.8434 56.4198 82.8434 56.2116 82.8434 56.0034C82.8434 55.7952 82.8434 55.7952 82.8434 55.587C82.8434 55.3788 82.8434 55.1706 82.8434 55.1706C82.8434 54.1297 82.8434 53.2969 83.051 52.8805C83.051 52.6723 83.2587 52.4641 83.2587 52.4641C83.2587 52.4641 83.2587 52.4641 83.2587 52.256C83.051 52.256 83.051 52.0478 83.051 52.0478C83.051 52.0478 83.2587 51.8396 83.2587 51.6314C83.2587 51.4232 83.2587 51.215 83.4663 51.215C83.4663 51.215 83.4663 51.215 83.4663 51.4232V51.6314C83.4663 51.6314 83.4663 51.8396 83.4663 52.0478C83.4663 52.256 83.4663 52.4641 83.4663 52.4641V52.6723C83.4663 52.6723 83.4663 52.8805 83.6739 52.8805C83.6739 52.8805 83.6739 52.8805 83.4663 52.8805V53.0887C83.4663 53.0887 83.4663 53.0887 83.4663 53.2969C83.4663 53.5051 83.4663 53.7133 83.2587 54.1297C83.2587 54.5461 83.2587 54.7542 83.2587 54.7542V56.2116L83.4663 56.4198C83.4663 56.628 83.4663 56.628 83.4663 56.628C83.4663 56.628 83.6739 56.4198 83.6739 56.2116C83.6739 56.0034 83.8815 55.7952 83.8815 55.7952C83.8815 55.7952 83.8815 55.7952 83.8815 56.0034C83.8815 56.2116 83.8815 56.2116 83.8815 56.2116H84.0892H84.2968L84.5044 56.0034C84.5044 56.0034 84.5044 55.7952 84.5044 55.587C84.5044 55.3788 84.5044 55.1706 84.5044 55.1706C84.5044 55.1706 84.5044 55.1706 84.5044 54.9624C84.2968 54.9624 84.2968 54.9624 84.5044 54.9624C84.7121 54.9624 84.7121 54.9624 84.7121 54.7542L84.5044 54.5461C84.5044 54.5461 84.5044 54.5461 84.7121 54.5461C84.7121 54.5461 84.7121 54.3379 84.7121 54.1297C84.7121 53.9215 84.7121 53.9215 84.7121 53.9215C84.9197 54.1297 84.9197 54.1297 84.7121 54.3379C84.7121 54.3379 84.7121 54.3379 84.7121 54.5461C84.7121 54.5461 84.7121 54.5461 84.9197 54.7542C84.9197 54.7542 84.9197 54.7542 84.9197 54.9624C84.9197 54.9624 84.9197 54.9624 85.1273 54.7542C85.1273 54.5461 85.3349 54.5461 85.3349 54.5461C85.3349 54.5461 85.3349 54.5461 85.3349 54.7542C85.3349 54.9624 85.3349 54.9624 85.3349 54.9624C85.3349 54.9624 85.3349 54.9624 85.5426 54.9624V54.7542V54.5461V54.3379C85.5426 54.3379 85.5426 54.1297 85.7502 54.1297L85.9578 53.9215V54.5461C85.9578 54.9624 85.9578 55.1706 85.7502 55.3788V55.587V55.3788C85.7502 55.1706 85.7502 55.1706 85.5426 55.1706C85.5426 55.1706 85.3349 55.3788 85.3349 55.7952C85.3349 56.0034 85.3349 56.2116 85.3349 56.4198C85.3349 56.628 85.3349 56.8362 85.5426 57.2525V57.4607C85.5426 57.4607 85.5426 57.4607 85.7502 57.4607H85.9578C85.9578 57.4607 85.9578 57.2525 86.1654 57.2525C86.1654 57.2525 86.1654 57.2525 86.1654 57.4607C86.1654 57.4607 86.1654 57.4607 86.1654 57.6689C86.1654 57.6689 86.1654 57.6689 86.1654 57.8771C86.1654 57.8771 86.1654 57.8771 85.9578 57.8771C85.9578 57.8771 85.7502 57.8771 85.7502 58.0853C85.7502 58.2935 85.7502 58.2935 85.9578 58.0853V58.2935C85.9578 58.5017 86.1654 58.5017 85.9578 58.5017C85.9578 58.5017 85.9578 58.7099 86.1654 58.7099C86.1654 58.9181 86.3731 58.9181 86.3731 58.9181C86.3731 58.9181 86.3731 58.9181 86.5807 58.9181V58.7099C86.3731 58.5017 86.3731 58.5017 86.3731 58.5017C86.3731 58.2935 86.3731 58.2935 86.3731 58.5017C86.5807 58.7099 86.5807 58.7099 86.5807 58.5017C86.5807 58.5017 86.7883 58.7099 86.7883 58.5017C86.996 58.5017 86.996 58.5017 86.996 58.2935C86.996 58.2935 86.996 58.0853 87.2036 58.0853C87.4112 58.0853 87.4112 57.8771 87.4112 57.8771C87.4112 57.8771 87.4112 57.8771 87.4112 57.6689C87.4112 57.6689 87.4112 57.6689 87.4112 57.4607C87.4112 57.4607 87.4112 57.2525 87.4112 57.0444C87.4112 56.8362 87.4112 56.8362 87.4112 56.628C87.4112 56.4198 87.4112 56.2116 87.4112 56.0034C87.4112 55.7952 87.2036 55.587 87.2036 55.3788L86.996 55.1706C86.996 55.1706 86.7883 54.9624 86.7883 54.7542C86.7883 54.5461 86.7883 54.1297 86.7883 53.7133V52.8805C86.7883 52.8805 86.7883 52.6723 86.7883 52.4641C86.7883 52.256 86.996 52.0478 86.996 51.6314C86.996 51.4232 87.2036 51.0068 87.2036 50.7986C87.2036 50.5904 87.4112 50.3822 87.4112 50.174C87.4112 49.7577 87.6188 49.5495 87.6188 49.1331C87.6188 48.9249 87.6188 48.7167 87.6188 48.7167C87.6188 48.7167 87.6188 48.7167 87.4112 48.9249C87.4112 48.9249 87.4112 49.1331 87.4112 48.9249C87.4112 48.9249 87.4112 48.7167 87.4112 48.5085C87.4112 48.3003 87.4112 48.0921 87.6188 47.8839C87.6188 47.6758 87.6188 47.2594 87.8265 47.0512C87.8265 46.843 87.8265 46.6348 88.0341 46.4266C88.0341 46.2184 88.0341 46.2184 88.0341 46.0102V45.802C88.0341 45.5938 88.0341 45.5938 88.2417 45.5938V45.3856C88.2417 45.3856 88.2417 45.3857 88.0341 45.1775C88.0341 45.1775 88.0341 44.9693 87.8265 44.9693C87.8265 44.9693 87.8265 44.7611 87.8265 44.5529C87.8265 44.3447 87.8265 44.3447 87.8265 44.3447C87.8265 44.3447 87.8265 44.3447 87.6188 44.3447H87.4112C87.4112 44.3447 87.4112 44.3447 87.2036 44.3447C86.996 44.3447 86.996 44.3447 86.996 44.3447C86.996 44.3447 86.996 44.3447 86.7883 44.3447C86.5807 44.3447 86.5807 44.3447 86.5807 44.3447C86.5807 44.3447 86.3731 44.3447 86.1654 44.3447V44.1365V43.9283V43.7201C85.9578 43.7201 85.7502 43.7201 85.7502 43.7201C85.5426 43.7201 85.3349 43.7201 85.3349 43.5119C85.3349 43.3037 85.1273 43.5119 84.9197 43.3037C84.7121 43.3037 84.7121 43.3037 84.5044 43.0955L83.051 42.8874L82.4282 42.6792C82.2205 42.6792 82.2205 42.6792 82.2205 42.471C82.2205 42.471 82.2205 42.471 82.0129 42.471C82.0129 42.471 81.8053 42.2628 81.5976 42.2628C81.39 42.0546 81.1824 41.8464 80.9748 41.6382C80.7671 41.43 80.5595 41.2218 80.3519 41.0136C80.1443 40.8054 80.1443 40.5973 79.9366 40.5973C79.729 40.3891 79.729 39.9727 79.729 39.7645C79.729 39.5563 79.729 39.3481 79.729 39.1399C79.729 39.1399 79.729 39.1399 79.9366 39.1399V38.9317C79.9366 38.9317 80.1443 39.1399 80.3519 39.1399H80.5595C80.5595 39.1399 80.7671 38.9317 80.7671 38.7235C80.7671 38.5153 80.9748 38.7235 81.39 39.1399C81.5976 39.3481 81.8053 39.5563 81.8053 39.3481C81.8053 39.3481 81.8053 39.3481 81.8053 39.1399L81.5976 38.9317L81.8053 39.1399L82.0129 39.3481C82.0129 39.3481 82.2205 39.3481 82.4282 39.7645C82.8434 40.1809 83.4663 40.5973 84.2968 40.8054C84.7121 40.8054 84.9197 40.8054 84.9197 40.8054L85.1273 40.5973C85.1273 40.5973 85.1273 40.5973 85.1273 40.3891C85.1273 40.3891 85.1273 40.3891 85.1273 40.1809L85.3349 39.3481C85.5426 38.5153 85.9578 37.4744 86.5807 36.4334C86.996 35.3925 87.8265 34.3515 88.657 33.1024C88.657 33.1024 88.8646 32.8942 88.8646 32.686C88.8646 32.4778 89.0722 32.4778 89.0722 32.4778C89.0722 32.4778 89.0722 32.2696 89.2799 32.2696V32.0614C89.2799 31.8532 89.2799 31.645 89.2799 31.4368C89.2799 31.2287 89.4875 31.2287 89.9027 31.4368C90.318 31.4368 90.5256 31.4368 90.5256 31.4368ZM82.4282 53.9215C82.2205 53.9215 82.4282 53.9215 82.4282 53.9215V53.9215ZM82.6358 52.0478C82.6358 52.256 82.6358 52.256 82.6358 52.0478V52.0478ZM82.6358 55.3788C82.8434 55.587 82.8434 55.587 82.6358 55.3788C82.8434 55.1706 82.8434 55.1706 82.8434 55.1706C82.8434 55.1706 83.051 54.9624 82.8434 54.9624V54.7542C82.8434 54.5461 82.8434 54.5461 82.8434 54.5461H82.6358C82.6358 54.5461 82.6358 54.5461 82.6358 54.7542V54.9624V54.7542L82.8434 54.5461V54.7542C82.8434 54.9624 82.8434 54.9624 82.6358 54.9624C82.6358 54.9624 82.6358 54.9624 82.6358 55.1706V55.3788ZM82.8434 55.7952C82.8434 56.0034 82.8434 56.0034 82.8434 55.7952C82.8434 55.587 82.8434 55.587 82.8434 55.7952ZM83.051 49.9659C82.8434 49.9659 82.6358 49.9659 82.8434 49.9659C82.8434 49.9659 82.8434 49.7577 83.051 49.7577H83.2587H83.4663H83.6739C83.6739 49.7577 83.6739 49.7577 83.6739 49.5495V49.7577C83.6739 49.9659 83.4663 49.9659 83.4663 50.174V50.3822C83.4663 50.3822 83.4663 50.3822 83.4663 50.174C83.4663 50.174 83.4663 50.174 83.4663 50.3822C83.4663 50.3822 83.4663 50.5904 83.2587 50.5904C83.2587 50.5904 83.2587 50.5904 83.051 50.5904V50.3822V50.174C83.051 50.174 83.051 50.174 83.051 49.9659ZM83.051 52.4641C83.051 52.6723 83.051 52.6723 83.051 52.4641C82.8434 52.6723 83.051 52.6723 83.051 52.6723C83.051 52.8805 83.051 52.6723 83.051 52.4641ZM83.6739 58.5017C83.8815 58.5017 83.8815 58.2935 83.6739 57.6689C83.6739 57.4607 83.4663 57.4607 83.4663 57.2525V57.0444V56.8362C83.4663 56.8362 83.4663 57.0443 83.4663 56.8362C83.4663 56.8362 83.4663 56.8362 83.4663 57.0444C83.4663 57.2525 83.4663 57.2525 83.6739 57.2525V57.4607C83.6739 57.4607 83.6739 57.6689 83.8815 57.8771C83.4663 58.2935 83.4663 58.5017 83.6739 58.5017C83.4663 58.5017 83.4663 58.5017 83.6739 58.5017ZM83.4663 49.5495C83.4663 49.5495 83.4663 49.3413 83.4663 49.5495C83.4663 49.3413 83.4663 49.3413 83.4663 49.5495C83.2587 49.3413 83.2587 49.3413 83.2587 49.3413C83.2587 49.3413 83.2587 49.3413 83.2587 49.1331C83.2587 49.1331 83.4663 49.1331 83.4663 48.9249C83.4663 48.7167 83.6739 48.5085 83.6739 48.5085H83.8815C83.8815 48.7167 83.6739 48.7167 83.6739 48.7167C83.6739 48.7167 83.6739 48.7167 83.6739 48.9249V49.1331V49.3413C83.6739 49.3413 83.6739 49.5495 83.4663 49.5495C83.4663 49.5495 83.4663 49.7577 83.4663 49.5495ZM83.2587 56.8362C83.4663 56.8362 83.4663 56.8362 83.2587 56.8362C83.4663 57.2525 83.4663 57.2525 83.4663 57.2525C83.4663 57.2525 83.4663 57.2525 83.4663 57.0444C83.4663 57.0444 83.4663 57.0443 83.4663 56.8362C83.6739 56.628 83.4663 56.628 83.2587 56.8362ZM83.2587 51.0068C83.4663 51.0068 83.4663 51.0068 83.2587 51.0068C83.2587 51.215 83.2587 51.0068 83.2587 51.0068ZM84.2968 51.8396C84.2968 52.0478 84.2968 52.0478 84.2968 51.8396C84.5044 51.8396 84.5044 51.8396 84.2968 51.8396C84.5044 51.8396 84.5044 52.0478 84.5044 52.256C84.5044 52.4641 84.5044 52.4641 84.2968 52.4641C84.2968 52.4641 84.0892 52.4641 84.0892 52.6723C84.0892 52.8805 84.0892 53.0887 83.8815 53.2969C83.8815 53.5051 83.8815 53.7133 83.6739 53.7133C83.6739 53.7133 83.4663 53.7133 83.6739 53.7133C83.6739 53.7133 83.8815 53.7133 83.8815 53.9215C83.8815 54.3379 83.8815 54.3379 83.6739 54.3379C83.6739 54.3379 83.6739 54.3379 83.6739 54.1297C83.6739 54.1297 83.6739 54.1297 83.4663 54.1297V54.3379C83.4663 54.3379 83.4663 54.3379 83.4663 54.5461C83.4663 54.5461 83.4663 54.7542 83.4663 54.9624C83.4663 55.1706 83.4663 55.1706 83.4663 55.3788C83.4663 55.587 83.4663 55.587 83.4663 55.587C83.4663 55.587 83.4663 55.587 83.2587 55.3788C83.2587 55.1706 83.2587 55.1706 83.2587 55.1706C83.2587 55.1706 83.2587 55.1706 83.2587 54.9624C83.2587 54.7542 83.2587 54.7542 83.2587 54.7542C83.2587 54.7542 83.2587 54.5461 83.2587 54.3379C83.2587 54.1297 83.4663 53.9215 83.2587 53.9215C83.2587 53.9215 83.2587 53.7133 83.2587 53.5051C83.2587 53.2969 83.2587 53.2969 83.2587 53.0887C83.2587 52.8805 83.2587 52.6723 83.2587 52.6723C83.2587 52.4641 83.2587 52.256 83.2587 52.256C83.2587 52.0478 83.2587 52.0478 83.2587 52.0478V52.256C83.2587 52.256 83.2587 52.256 83.4663 52.256C83.4663 52.0478 83.4663 51.8396 83.4663 51.8396C84.0892 51.8396 84.0892 51.6314 84.2968 51.8396C84.0892 51.6314 84.2968 51.6314 84.2968 51.8396C84.2968 51.6314 84.2968 51.6314 84.2968 51.8396ZM83.6739 47.6758C83.6739 47.4676 83.6739 47.2594 83.6739 47.2594V47.0512C83.6739 47.0512 83.6739 46.843 83.8815 46.843C84.0892 46.843 83.8815 46.843 83.8815 46.843C83.8815 46.843 83.8815 46.6348 84.0892 46.6348L84.2968 46.4266C84.2968 46.4266 84.2968 46.4266 84.2968 46.6348V46.843V47.0512C84.2968 47.0512 84.2968 47.0512 84.2968 47.2594C83.8815 47.2594 83.6739 47.4676 83.6739 47.6758C83.6739 47.4676 83.6739 47.6758 83.6739 47.6758C83.8815 47.6758 83.8815 47.6757 83.8815 47.4676C83.8815 47.4676 83.8815 47.4676 84.0892 47.4676C84.0892 47.4676 84.0892 47.6758 84.0892 47.8839C84.0892 48.0921 83.8815 48.3003 83.8815 48.3003C83.8815 48.3003 83.6739 48.3003 83.8815 48.3003V48.0921C83.6739 48.0921 83.6739 47.8839 83.6739 47.6758ZM83.6739 47.2594C83.8815 47.0512 83.8815 47.0512 83.6739 47.2594C83.6739 47.0512 83.6739 47.0512 83.6739 47.2594ZM83.6739 47.8839C83.8815 47.8839 83.8815 47.8839 83.6739 47.8839C83.8815 47.6758 83.8815 47.6758 83.6739 47.8839C83.6739 47.6758 83.6739 47.8839 83.6739 47.8839ZM83.8815 51.4232C83.8815 51.4232 84.0892 51.4232 83.8815 51.4232C83.8815 51.6314 83.8815 51.6314 83.8815 51.6314C83.6739 51.6314 83.6739 51.6314 83.8815 51.4232C83.6739 51.6314 83.6739 51.6314 83.8815 51.4232C83.6739 51.4232 83.6739 51.4232 83.8815 51.4232ZM84.0892 45.5938C84.2968 45.5938 84.0892 45.5938 84.0892 45.802C84.0892 46.0102 83.8815 46.2184 83.8815 46.2184C83.8815 46.2184 83.8815 46.2184 83.8815 46.0102C83.8815 45.802 84.0892 45.802 84.0892 45.5938ZM84.0892 47.0512C84.0892 47.2594 84.0892 47.2594 84.0892 47.0512C84.0892 47.2594 84.0892 47.2594 84.0892 47.0512C83.8815 47.2594 83.8815 47.2594 84.0892 47.0512ZM84.0892 45.1775C84.0892 44.7611 84.0892 44.5529 84.0892 44.5529V44.7611V44.5529C84.0892 44.5529 84.0892 44.3447 84.2968 44.3447H84.5044C84.5044 44.3447 84.5044 44.3447 84.5044 44.1365C84.5044 44.1365 84.5044 43.9283 84.7121 43.9283C84.7121 43.7201 84.9197 43.7201 84.9197 43.7201C84.9197 43.7201 84.9197 43.7201 84.9197 43.9283C84.7121 44.1365 84.7121 44.3447 84.7121 44.5529V44.7611V44.9693C84.2968 44.9693 84.2968 45.1775 84.0892 45.1775C84.2968 45.1775 84.2968 45.1775 84.0892 45.1775C84.0892 45.3857 84.0892 45.3856 84.0892 45.3856C84.0892 45.3856 84.0892 45.3857 84.0892 45.1775ZM84.2968 48.9249C84.2968 49.1331 84.2968 49.1331 84.2968 48.9249C84.2968 48.9249 84.2968 49.1331 84.0892 49.1331C84.0892 49.1331 83.8815 49.3413 83.8815 49.1331C84.0892 49.3413 84.0892 49.3413 84.2968 48.9249C84.0892 49.1331 84.2968 48.9249 84.2968 48.9249ZM84.0892 48.3003C84.0892 48.3003 84.2968 48.3003 84.0892 48.3003C84.2968 48.5085 84.2968 48.5085 84.0892 48.3003C84.2968 48.5085 84.2968 48.5085 84.0892 48.3003ZM84.0892 51.215C84.0892 51.0068 84.0892 51.0068 84.0892 51.215C84.0892 51.0068 84.0892 51.0068 84.0892 51.215ZM84.2968 53.5051C84.2968 53.7133 84.2968 53.7133 84.2968 53.5051C84.2968 53.7133 84.2968 53.7133 84.0892 53.7133C84.0892 53.7133 84.0892 53.7133 84.2968 53.5051C84.0892 53.5051 84.0892 53.5051 84.2968 53.5051ZM84.2968 52.6723C84.2968 52.6723 84.2968 52.8805 84.2968 52.6723C84.2968 52.8805 84.2968 52.8805 84.2968 52.6723ZM84.5044 51.4232C84.7121 51.215 84.7121 51.215 84.5044 51.4232C84.5044 51.6314 84.2968 51.6314 84.5044 51.4232ZM84.5044 51.215C84.5044 51.215 84.5044 51.0068 84.5044 51.215V51.215ZM84.5044 52.256C84.5044 52.4641 84.5044 52.4641 84.5044 52.256C84.5044 52.4641 84.5044 52.4641 84.5044 52.256ZM84.5044 51.0068C84.5044 51.0068 84.5044 50.7986 84.5044 50.5904C84.5044 50.3822 84.7121 50.174 84.7121 50.174C84.9197 50.174 84.9197 50.174 84.7121 50.5904V50.7986C84.7121 50.5904 84.7121 50.7986 84.5044 51.0068C84.7121 50.7986 84.7121 50.7986 84.5044 51.0068C84.7121 50.7986 84.7121 50.7986 84.5044 51.0068ZM84.9197 52.4641C84.9197 52.4641 84.9197 52.6723 84.9197 52.8805C84.9197 53.0887 84.9197 53.0887 84.9197 53.2969C84.9197 53.5051 84.9197 53.5051 84.9197 53.7133C84.9197 53.9215 84.9197 53.9215 84.9197 53.9215C84.9197 53.9215 84.9197 53.7133 84.9197 53.5051C84.9197 53.2969 84.9197 53.0887 84.9197 52.8805C84.9197 52.6723 84.7121 52.6723 84.9197 52.4641C84.9197 52.0478 84.9197 52.0478 84.9197 51.8396C84.9197 51.8396 84.9197 51.8396 85.1273 51.8396C85.1273 51.8396 85.1273 51.8396 85.1273 52.0478C84.9197 52.256 84.9197 52.256 84.9197 52.4641ZM84.9197 56.4198C84.9197 56.2116 84.9197 56.4198 84.9197 56.4198C84.9197 56.8362 84.9197 56.8362 84.7121 57.0444V56.8362C84.7121 56.628 84.7121 56.4198 84.9197 56.4198ZM84.7121 47.0512C84.9197 46.843 84.9197 46.843 84.7121 47.0512C84.9197 47.0512 84.9197 47.0512 84.7121 47.0512ZM84.9197 55.7952C84.7121 55.7952 84.7121 55.7952 84.9197 55.7952C84.7121 55.587 84.7121 55.587 84.9197 55.7952C84.7121 55.587 84.7121 55.587 84.9197 55.7952C84.9197 55.587 84.9197 55.7952 84.9197 55.7952ZM84.9197 55.587C84.9197 55.3788 84.9197 55.3788 84.9197 55.587V55.587ZM85.1273 57.0444C85.1273 57.2525 85.1273 57.2525 85.1273 57.0444C85.1273 56.8362 85.1273 56.8362 85.1273 56.8362C85.3349 56.8362 85.3349 56.8362 85.1273 57.0444C85.3349 57.0444 85.1273 57.0444 85.1273 57.0444ZM85.3349 49.7577C85.1273 49.7577 85.1273 49.7577 85.3349 49.7577V49.5495V49.7577ZM85.3349 46.843C85.3349 46.843 85.3349 46.6348 85.3349 46.843V46.843ZM85.5426 46.6348C85.3349 46.6348 85.3349 46.6348 85.5426 46.6348C85.5426 46.6348 85.5426 46.4266 85.5426 46.6348ZM85.7502 56.628C85.7502 56.8362 85.5426 56.8362 85.7502 56.628C85.5426 56.628 85.5426 56.628 85.5426 56.628C85.5426 56.628 85.5426 56.628 85.7502 56.628C85.5426 56.628 85.5426 56.628 85.7502 56.628C85.7502 56.4198 85.7502 56.4198 85.7502 56.4198C85.7502 56.4198 85.7502 56.4198 85.7502 56.628ZM85.7502 54.1297C85.7502 53.9215 85.7502 53.9215 85.7502 54.1297V54.1297ZM85.7502 58.0853C85.7502 57.8771 85.7502 57.8771 85.7502 58.0853H85.9578H86.1654C85.9578 58.0853 85.9578 58.0853 85.7502 58.0853ZM85.9578 45.3856C85.7502 45.3856 85.7502 45.3856 85.9578 45.3856C85.7502 45.3856 85.9578 45.1775 85.9578 45.3856C85.9578 45.1775 85.9578 45.1775 85.9578 45.3856ZM87.4112 37.6826C87.6188 37.2662 87.6188 37.058 87.6188 37.058C87.6188 37.058 87.6188 37.058 87.6188 37.2662L87.4112 37.6826C87.2036 37.6826 87.2036 37.8908 87.2036 37.8908C87.2036 37.8908 87.2036 37.8908 86.996 38.099C86.7883 38.3071 86.996 38.3071 86.7883 38.3071C86.7883 38.3071 86.7883 38.5153 86.5807 38.7235C86.5807 38.7235 86.5807 38.9317 86.3731 38.9317C86.1654 38.9317 86.1654 39.1399 86.1654 39.5563C86.1654 39.5563 86.1654 39.5563 85.9578 39.5563C85.7502 39.5563 85.7502 39.7645 85.7502 39.7645C85.7502 39.9727 85.7502 39.9727 85.5426 40.1809C85.3349 40.3891 85.3349 40.3891 85.3349 40.5973C85.3349 40.5973 85.3349 40.5973 85.5426 40.5973H85.7502C85.7502 40.5973 86.1654 40.5973 86.3731 40.5973C87.2036 40.5973 87.6188 40.5973 87.8265 40.5973C88.0341 40.5973 88.0341 40.5973 88.0341 40.3891C88.0341 40.3891 88.0341 40.3891 88.0341 40.1809C88.0341 40.1809 88.0341 39.9727 88.2417 39.9727C88.2417 39.7645 88.2417 39.7645 88.2417 39.7645C88.0341 39.7645 88.0341 39.9727 87.8265 40.3891C87.8265 40.3891 87.8265 40.3891 87.8265 40.5973C87.8265 40.5973 87.8265 40.5973 87.8265 40.8054V40.5973C87.8265 40.3891 87.8265 40.1809 87.8265 39.9727C87.8265 39.7645 87.8265 39.5563 88.0341 39.3481C88.0341 39.1399 88.0341 39.1399 88.0341 39.1399C88.0341 39.1399 87.8265 39.3481 87.6188 39.7645L87.4112 39.9727C87.4112 39.9727 87.4112 39.9727 87.4112 40.1809C87.4112 40.3891 87.4112 40.3891 87.2036 40.3891C87.2036 40.3891 87.2036 40.3891 87.2036 40.1809V39.9727C87.2036 39.7645 87.4112 39.7645 87.4112 39.5563V39.3481C87.4112 39.3481 87.4112 39.3481 87.4112 39.1399L87.6188 38.9317C87.6188 38.7235 87.6188 38.7235 87.6188 38.7235C87.6188 38.7235 87.6188 38.7235 87.6188 38.9317C87.6188 39.1399 87.4112 39.1399 87.4112 39.1399C87.2036 39.1399 87.2036 39.3481 86.996 39.5563V39.7645C86.996 39.7645 86.996 39.7645 86.996 39.5563L87.2036 39.1399C87.4112 38.7235 87.4112 38.7235 87.4112 38.5153C87.4112 38.5153 87.4112 38.5153 87.4112 38.3071C87.4112 38.099 87.4112 38.099 87.4112 38.099H87.2036C86.996 38.099 86.7883 38.099 86.7883 38.3071C86.7883 38.3071 86.7883 38.5153 86.5807 38.7235C86.5807 38.9317 86.5807 38.9317 86.3731 38.9317C86.3731 38.9317 86.3731 38.9317 86.3731 38.7235C86.3731 38.5153 86.5807 38.3071 86.5807 38.099C87.6188 37.8908 87.6188 37.8908 87.4112 37.6826C87.4112 37.8908 87.4112 37.6826 87.4112 37.6826ZM86.996 48.3003C86.996 48.3003 86.996 48.0921 86.996 48.3003C86.996 48.0921 86.7883 48.3003 86.996 48.3003C86.7883 48.5085 86.7883 48.5085 86.996 48.5085V48.3003ZM86.996 57.2525C86.996 57.4607 86.996 57.4607 86.996 57.2525V57.2525ZM87.6188 39.9727C87.6188 39.7645 87.6188 39.7645 87.6188 39.9727C87.6188 39.7645 87.6188 39.7645 87.6188 39.9727C87.6188 39.7645 87.6188 39.7645 87.6188 39.9727ZM88.0341 36.4334C87.8265 36.6416 87.8265 36.8498 87.8265 36.8498C87.8265 36.8498 87.8265 36.8498 88.0341 36.8498C88.0341 36.8498 88.2417 36.8498 88.2417 36.6416L88.0341 36.4334ZM88.8646 56.2116C88.657 56.2116 88.657 56.2116 88.8646 56.2116C88.8646 56.0034 88.8646 56.0034 88.8646 55.7952C88.8646 56.0034 88.8646 56.0034 88.8646 56.2116ZM88.8646 49.7577C88.8646 49.9659 88.8646 50.174 88.8646 50.174C88.657 50.174 88.657 49.9659 88.8646 49.7577ZM89.2799 40.8054C89.4875 40.5973 89.4875 40.5973 89.2799 40.5973V40.8054C89.0722 40.8054 89.0722 40.8054 89.2799 40.8054ZM90.318 43.7201C90.318 43.5119 90.318 43.5119 90.318 43.5119C90.318 43.5119 90.1104 43.5119 90.1104 43.7201C90.1104 43.9283 90.1104 44.1365 90.1104 44.3447C90.1104 44.3447 90.1104 44.3447 90.318 44.1365C90.1104 43.9283 90.318 43.9283 90.318 43.7201Z" fill="#563281"/>
</g>
<defs>
<clipPath id="clip0">
<rect width="98" height="61" fill="white"/>
</clipPath>
</defs>
</svg>
