<svg width="75" height="65" viewBox="0 0 75 65" fill="none" xmlns="http://www.w3.org/2000/svg">
<path d="M37.5 65C58.2107 65 75 50.4493 75 32.5C75 14.5507 58.2107 0 37.5 0C16.7893 0 0 14.5507 0 32.5C0 50.4493 16.7893 65 37.5 65Z" fill="#F0F0F0"/>
<path d="M27.75 37.8369C27 36.7649 26.5038 36.0465 26.2615 35.6816C25.9154 35.1456 25.6846 34.7009 25.5577 34.336C25.4307 33.9711 25.3846 33.5491 25.3846 33.0702C25.3846 32.2947 25.5807 31.5877 25.973 30.9263C26.3654 30.2649 26.8846 29.7518 27.5538 29.364C28.223 28.9763 28.9384 28.7825 29.723 28.7825C30.5077 28.7825 31.223 28.9763 31.8923 29.364C32.5615 29.7518 33.0807 30.2649 33.473 30.9263C33.8654 31.5877 34.0615 32.2947 34.0615 33.0702C34.0615 33.5491 34.0038 33.9597 33.8769 34.3246C33.75 34.6895 33.5192 35.1342 33.173 35.6702C32.9307 36.0465 32.4346 36.7649 31.6846 37.8254L30.173 39.9693C30.0692 40.1176 29.9192 40.1974 29.723 40.1974C29.5269 40.1974 29.3769 40.1176 29.273 39.9693C28.8692 39.4105 28.3615 38.7035 27.75 37.8369ZM30.9807 34.3246C31.3384 33.9711 31.5115 33.5605 31.5115 33.0702C31.5115 32.5798 31.3384 32.1579 30.9807 31.8158C30.623 31.4737 30.2077 31.2912 29.7115 31.2912C29.2154 31.2912 28.7884 31.4623 28.4423 31.8158C28.0961 32.1693 27.9115 32.5798 27.9115 33.0702C27.9115 33.5605 28.0846 33.9825 28.4423 34.3246C28.8 34.6667 29.2154 34.8491 29.7115 34.8491C30.2077 34.8491 30.6346 34.6781 30.9807 34.3246Z" fill="#217575"/>
<path d="M15.173 25.0308L20.1577 38.6465H18.3577L16.2807 32.9904H12.5307L10.4192 38.6465H8.6192L13.673 25.0308H15.173ZM15.7384 31.5194L14.4115 27.9044L13.0846 31.5194H15.7384Z" fill="#563281"/>
<path d="M25.1538 31.2914C24.3576 31.4054 23.7461 31.7247 23.3192 32.2265C22.8807 32.7282 22.673 33.3554 22.673 34.1194V38.658H20.9423V30.0028H22.673V31.2343C22.9269 30.5615 23.4807 30.094 24.323 29.8203L25.1538 31.2914Z" fill="#563281"/>
<path d="M38.6539 39.4218C37.4885 39.4218 36.577 39.0911 35.8962 38.4183C35.227 37.7455 34.8808 36.9244 34.8577 35.9551V30.6411H36.5885V35.8867C36.5885 36.4683 36.7962 36.9587 37.2116 37.3578C37.6039 37.7455 38.077 37.9394 38.6423 37.9394C39.15 37.9394 39.6116 37.7455 40.0154 37.3464C40.4193 36.9473 40.6154 36.4683 40.6154 35.8867V30.6411H42.3462V35.9551C42.3231 36.9244 41.977 37.7569 41.2962 38.4297C40.6385 39.0911 39.75 39.4218 38.6539 39.4218Z" fill="#563281"/>
<path d="M45.8654 32.8534V39.3078H44.1346V30.6525H45.8654C46.1539 30.3332 46.7654 30.1736 47.6885 30.1736C48.7962 30.1736 49.6847 30.5043 50.3654 31.1771C51.0462 31.8499 51.3923 32.6596 51.4039 33.6288V39.2964H49.6847V33.6973C49.6847 33.1157 49.4885 32.6253 49.0846 32.2376C48.6808 31.8499 48.2193 31.656 47.7 31.656C47.1923 31.656 46.7423 31.8385 46.35 32.2034C46.1077 32.4429 45.9577 32.6481 45.8654 32.8534Z" fill="#563281"/>
<path d="M62.8731 39.3079H61.1424V37.7912C60.4616 38.9543 59.4231 39.5359 58.0154 39.5359C56.6308 39.5359 55.4539 39.057 54.4962 38.1105C53.5385 37.164 53.0539 36.035 53.0539 34.7464C53.0539 33.435 53.5385 32.3175 54.4962 31.371C55.4539 30.4245 56.6308 29.9456 58.0154 29.9456C59.4116 29.9456 60.45 30.5157 61.1424 31.6675V25.6807H62.8731V39.3079ZM61.1308 35.4307V34.0508C61.0154 33.4236 60.7154 32.8877 60.2539 32.4315C59.6077 31.7929 58.8577 31.4622 58.0039 31.4622C57.1385 31.4622 56.4 31.7815 55.7654 32.4087C55.1308 33.0359 54.8193 33.8228 54.8193 34.7464C54.8193 35.6701 55.1308 36.4456 55.7654 37.0614C56.4 37.6772 57.15 37.9964 58.0039 37.9964C58.8577 37.9964 59.6077 37.6771 60.2539 37.0386C60.727 36.5938 61.0154 36.0579 61.1308 35.4307Z" fill="#563281"/>
<path d="M18.5077 41.0526V49.8675H17.3884V42.7061L14.4577 46.5149L11.5154 42.7061V49.8675H10.3846V41.0526H11.5846L14.4461 44.7588L17.3077 41.0526H18.5077Z" fill="#563281"/>
<path d="M20.9308 42.6719C21.0808 42.8201 21.1615 42.9798 21.1615 43.1622C21.1615 43.3447 21.0808 43.5157 20.9308 43.664C20.7808 43.8122 20.5961 43.8806 20.3654 43.8806C20.1346 43.8806 19.9384 43.8122 19.7884 43.664C19.6384 43.5157 19.5692 43.3561 19.5692 43.1622C19.5692 42.9798 19.6384 42.8201 19.7884 42.6719C19.9384 42.5236 20.1346 42.4552 20.3654 42.4552C20.5961 42.4552 20.7808 42.5236 20.9308 42.6719ZM20.9192 44.2684V49.8675H19.8V44.2684H20.9192Z" fill="#563281"/>
<path d="M23.3884 45.6938V49.8675H22.2692V44.2683H23.3884C23.573 44.0631 23.9653 43.9604 24.5653 43.9604C25.2807 43.9604 25.8576 44.1771 26.2961 44.6104C26.7346 45.0438 26.9538 45.5683 26.9653 46.1955V49.8675H25.8461V46.2526C25.8461 45.8762 25.7192 45.5569 25.4538 45.3061C25.1884 45.0552 24.8999 44.9297 24.5653 44.9297C24.2307 44.9297 23.9422 45.0438 23.6884 45.2833C23.5499 45.4201 23.4461 45.5569 23.3884 45.6938Z" fill="#563281"/>
<path d="M29.3077 45.6938V49.8675H28.1885V44.2683H29.3077C29.4923 44.0631 29.8846 43.9604 30.4846 43.9604C31.2 43.9604 31.7769 44.1771 32.2154 44.6104C32.6539 45.0438 32.8731 45.5683 32.8846 46.1955V49.8675H31.7654V46.2526C31.7654 45.8762 31.6385 45.5569 31.3731 45.3061C31.1077 45.0552 30.8192 44.9297 30.4846 44.9297C30.15 44.9297 29.8616 45.0438 29.6077 45.2833C29.4692 45.4201 29.3654 45.5569 29.3077 45.6938Z" fill="#563281"/>
<path d="M34.9731 46.8913V46.9141C34.9731 47.507 35.1808 48.0088 35.5847 48.4193C35.9885 48.8299 36.4731 49.0237 37.0385 49.0237C37.5923 49.0237 38.077 48.8185 38.4923 48.4079C38.55 48.3509 38.6654 48.2255 38.827 48.0202L39.877 48.3851C39.7154 48.6474 39.5423 48.8755 39.3347 49.0807C38.7116 49.7079 37.9385 50.0158 37.0385 50.0158C36.1385 50.0158 35.377 49.7079 34.7654 49.0921C34.1423 48.4763 33.8308 47.7465 33.8308 46.9141C33.8308 46.0702 34.1423 45.3404 34.7654 44.7246C35.3885 44.1088 36.15 43.8009 37.0385 43.8009C37.9385 43.8009 38.7116 44.1088 39.3347 44.736C39.877 45.272 40.1423 45.9904 40.1423 46.8913H34.9731ZM35.1693 45.9334H38.8847C38.6193 45.1693 38.0077 44.793 37.0385 44.793C36.0577 44.793 35.4347 45.1693 35.1693 45.9334Z" fill="#563281"/>
<path d="M42.4385 47.0737C42.0115 46.8456 41.7231 46.6518 41.5731 46.5035C41.2615 46.1956 41.1115 45.8535 41.1115 45.4658C41.1115 45.0781 41.2615 44.736 41.5615 44.4395C41.8615 44.143 42.2308 43.9948 42.6808 43.9948C43.1308 43.9948 43.4885 44.1316 43.7539 44.4053C44.0308 44.679 44.1808 44.9869 44.1808 45.3176V45.4886L43.1769 45.8877C43.1192 45.4316 43.0385 45.1579 42.9577 45.0781C42.8769 44.9983 42.7846 44.9526 42.6808 44.9526C42.5769 44.9526 42.4731 44.9983 42.3808 45.0895C42.2885 45.1807 42.2423 45.3062 42.2423 45.4658C42.2423 45.6255 42.3 45.7509 42.4039 45.8535C42.4731 45.9219 42.6346 46.0474 42.8885 46.207C43.35 46.4579 43.6962 46.686 43.9154 46.9026C44.25 47.2448 44.4231 47.6553 44.4231 48.1114C44.4231 48.5904 44.25 49.0009 43.8923 49.3544C43.5346 49.7079 43.0962 49.879 42.5769 49.879C42.0577 49.879 41.6077 49.7079 41.25 49.3544C40.8923 49.0009 40.7192 48.5676 40.7192 48.043L41.8385 47.7693C41.8385 48.2483 41.9192 48.5562 42.0692 48.7044C42.2192 48.8526 42.3923 48.9325 42.5769 48.9325C42.7615 48.9325 42.9346 48.8526 43.0846 48.7044C43.2346 48.5562 43.3154 48.3623 43.3154 48.1114C43.3154 47.8833 43.2346 47.6781 43.0731 47.5184C42.9577 47.4158 42.75 47.279 42.4385 47.0737Z" fill="#563281"/>
<path d="M48.5307 43.8123C49.4307 43.8123 50.1922 44.1202 50.8153 44.7359C51.4384 45.3517 51.7384 46.0816 51.7384 46.9254C51.7384 47.7579 51.4268 48.4877 50.8153 49.1035C50.2038 49.7193 49.4422 50.0272 48.5307 50.0272C47.6307 50.0272 46.8692 49.7193 46.2576 49.1035C45.6345 48.4877 45.323 47.7579 45.323 46.9254C45.323 46.0816 45.6345 45.3517 46.2576 44.7359C46.8692 44.1202 47.6307 43.8123 48.5307 43.8123ZM47.0768 45.3973C46.673 45.8079 46.4653 46.3096 46.4653 46.914C46.4653 47.507 46.673 48.0088 47.0768 48.4193C47.4807 48.8298 47.9653 49.0237 48.5307 49.0237C49.0845 49.0237 49.5692 48.8184 49.973 48.4193C50.3884 48.0202 50.5845 47.5184 50.5845 46.914C50.5845 46.3096 50.3768 45.8079 49.973 45.3973C49.5576 44.9868 49.0845 44.7816 48.5307 44.7816C47.9768 44.793 47.4922 44.9982 47.0768 45.3973Z" fill="#563281"/>
<path d="M53.4346 44.2684V42.0903H54.5538V44.2684H55.6038V45.2263H54.5538V49.8675H53.4346V45.2263H52.3846V44.2684H53.4346Z" fill="#563281"/>
<path d="M62.6077 49.8676H61.4885V48.8869C61.05 49.6395 60.3692 50.0158 59.4692 50.0158C58.5692 50.0158 57.8077 49.7079 57.1962 49.0921C56.5731 48.4763 56.2615 47.7465 56.2615 46.9141C56.2615 46.0702 56.5731 45.3404 57.1962 44.7246C57.8192 44.1088 58.5808 43.8009 59.4692 43.8009C60.3692 43.8009 61.05 44.1772 61.4885 44.9184V44.2684H62.6077V49.8676ZM61.4885 47.3588V46.4693C61.4077 46.0702 61.2231 45.7167 60.9231 45.4202C60.5077 44.9983 60.0231 44.793 59.4692 44.793C58.9154 44.793 58.4308 44.9983 58.0154 45.4088C57.6 45.8193 57.4038 46.3211 57.4038 46.9255C57.4038 47.5185 57.6115 48.0202 58.0154 48.4307C58.4192 48.8413 58.9038 49.0351 59.4692 49.0351C60.0231 49.0351 60.5077 48.8299 60.9231 48.4193C61.2231 48.1114 61.4077 47.7579 61.4885 47.3588Z" fill="#563281"/>
<path d="M26.7 26.1026V25.2587C28.1538 25.0535 28.1538 24.8026 27.8308 23.8219C27.6 23.1377 27.2308 22.1114 26.8846 21.1991H22.3846C22.1308 21.9061 21.8077 22.7728 21.5769 23.4798C21.0923 24.9166 21.6462 25.0991 23.4692 25.2587V26.1026H17.7692V25.2587C19.2231 25.0763 19.5923 24.871 20.3769 22.9552L25.1769 11.164L26.2846 10.9587C27.7615 14.9272 29.3308 18.9868 30.8308 22.7956C31.6846 24.9166 31.8923 25.0763 33.3923 25.2587V26.1026H26.7ZM24.6692 15.2008C24 16.843 23.3538 18.371 22.7769 20.0359H26.4462L24.6692 15.2008Z" fill="#217575"/>
<path d="M40.4077 26.1026H34.3154V25.3272C35.5385 25.1903 35.6539 25.0763 35.6539 23.7079V18.7131C35.6539 17.5728 35.5616 17.4587 34.477 17.2307V16.5236C35.9077 16.364 37.2 16.0903 38.6308 15.657C38.6308 16.4096 38.6308 17.3903 38.6308 18.1201C39.6693 16.5465 40.5 15.7026 41.4462 15.7026C42.3 15.7026 42.9462 16.2728 42.9462 17.071C42.9462 18.1886 42.1385 18.8272 41.7693 19.0096C41.4462 19.1465 41.2154 19.0324 41.0539 18.8956C40.6616 18.5763 40.3616 18.2114 39.9693 18.2114C39.6231 18.2114 39.0462 18.5079 38.6308 19.3745V23.7079C38.6308 25.0763 38.7924 25.1447 40.4077 25.3272V26.1026Z" fill="#217575"/>
<path d="M49.2923 26.1255C48.9 26.3079 48.5308 26.3763 48.3693 26.3763C46.5923 26.3763 45.5308 25.5553 45.5308 23.4798V17.1167H44.0539L43.9154 16.843L44.5846 15.9763H45.5308V14.0834C46.3154 13.536 47.4462 12.8062 48.2539 12.2588L48.5539 12.4412C48.5308 13.057 48.4846 14.2658 48.5077 15.9763H50.8154C51.0231 16.2044 50.9308 16.9114 50.6308 17.1167H48.5077V22.7044C48.5077 24.4834 49.2462 24.6886 49.6846 24.6886C50.077 24.6886 50.3769 24.6202 50.7923 24.4605L51.0231 25.2816L49.2923 26.1255Z" fill="#217575"/>
<path d="M58.3154 18.9411C57.7154 17.3446 56.9308 16.6148 55.8461 16.6148C55.2 16.6148 54.6231 17.0709 54.6231 17.8236C54.6231 18.6218 55.2 19.0551 56.4 19.5797C58.2692 20.4008 59.5385 21.1762 59.5385 22.9779C59.5385 25.2587 57.3461 26.3762 55.3385 26.3762C54.1385 26.3762 52.8923 25.9201 52.4077 25.692C52.3154 25.1674 52.1077 23.5937 52.0385 22.7955L52.8 22.6587C53.2846 24.0955 54.2308 25.4411 55.7308 25.4411C56.6077 25.4411 57.0461 24.9165 57.0461 24.2551C57.0461 23.5481 56.7 23.0236 55.2692 22.3394C53.7461 21.6095 52.2692 20.8113 52.2692 18.9183C52.2692 17.1165 53.7692 15.7025 56.2154 15.7025C57.3231 15.7025 58.1769 15.9306 58.7077 16.0446C58.7769 16.6604 58.9846 18.1201 59.0769 18.7358L58.3154 18.9411Z" fill="#217575"/>
</svg>
